<?xml version="1.0" standalone="no"?>
<!DOCTYPE svg PUBLIC "-//W3C//DTD SVG 1.1//EN" "http://www.w3.org/Graphics/SVG/1.1/DTD/svg11.dtd" >
<svg xmlns="http://www.w3.org/2000/svg">
<metadata></metadata>
<defs>
<font id="pf_regal_display_proregular" horiz-adv-x="1064" >
<font-face units-per-em="2048" ascent="1536" descent="-512" />
<missing-glyph horiz-adv-x="491" />
<glyph horiz-adv-x="0" />
<glyph horiz-adv-x="682" />
<glyph unicode=" "  horiz-adv-x="491" />
<glyph unicode="&#x09;" horiz-adv-x="491" />
<glyph unicode="&#xa0;" horiz-adv-x="491" />
<glyph unicode="!" horiz-adv-x="544" d="M166 92q0 46 31 77.5t75 31.5q46 0 77.5 -31.5t31.5 -77.5q0 -44 -31.5 -75t-77.5 -31q-44 0 -75 31t-31 75zM166 1298q-3 29 3.5 56t31.5 49t67 22q63 0 86.5 -39t18.5 -92l-88 -925h-25z" />
<glyph unicode="&#x22;" horiz-adv-x="624" d="M104 1370q-5 29 16 54.5t64 25.5q48 0 69 -25t15 -63l-69 -434h-25zM356 1370q-5 29 16 54.5t64 25.5q42 0 66 -26t18 -62l-69 -434h-25z" />
<glyph unicode="#" d="M37 473v35h244l61 354h-246v33h252l68 383h37l-68 -383h373l67 383h37l-67 -383h239v-33h-246l-61 -354h248v-35h-254l-72 -414h-37l72 414h-373l-71 -414h-37l71 414h-237zM317 508h373l62 354h-373z" />
<glyph unicode="$" d="M82 227q0 49 28.5 79t63.5 30q62 0 95.5 -44t33.5 -112q0 -62 -31 -119q66 -36 166 -43v658q-56 27 -95 48.5t-83 52.5t-70 62t-43.5 73t-17.5 89q0 137 84.5 224.5t224.5 113.5v148h29v-1634h-29v141q-155 9 -255.5 73t-100.5 160zM293 1067q0 -109 145 -190v421 q-65 -24 -105 -85t-40 -146zM569 -147v1634h29v-144q131 -11 223 -72.5t92 -152.5q0 -48 -25.5 -75t-60.5 -27q-59 0 -90.5 42t-31.5 107q0 62 26 121q-71 24 -133 31v-520q67 -31 112 -55t101.5 -64t90.5 -79.5t57.5 -96.5t23.5 -121q0 -86 -31 -154.5t-85.5 -113.5 t-121.5 -73t-147 -40v-147h-29zM598 29q108 18 170.5 97.5t62.5 186.5q0 171 -233 287v-571z" />
<glyph unicode="%" horiz-adv-x="1546" d="M94 995q0 60 9 115t31.5 107t55.5 90.5t84.5 62t116.5 23.5q80 0 139 -32.5t91.5 -90t47.5 -125t15 -148.5q0 -74 -16 -141t-48.5 -125.5t-91.5 -93.5t-137 -35q-81 0 -140.5 32t-92.5 89t-48.5 124.5t-15.5 147.5zM225 997q0 -103 15 -182.5t53.5 -133.5t97.5 -54 q162 0 162 370q0 85 -7.5 149.5t-25.5 116t-51 78.5t-80 27q-44 0 -77 -31t-51.5 -84.5t-27 -117.5t-8.5 -138zM385 -80l727 1555h33l-725 -1555h-35zM860 381q0 60 9 114.5t31.5 107t55.5 90.5t84.5 61.5t116.5 23.5q80 0 139 -32.5t91.5 -89.5t47.5 -124.5t15 -148.5 q0 -74 -16 -141t-48.5 -125.5t-91.5 -93.5t-137 -35q-81 0 -140.5 32t-92.5 89t-48.5 124.5t-15.5 147.5zM991 383q0 -103 15 -183t53.5 -134t97.5 -54q162 0 162 371q0 85 -7.5 149.5t-25.5 116t-51 78.5t-80 27q-44 0 -77 -31t-51.5 -84.5t-27 -117.5t-8.5 -138z" />
<glyph unicode="&#x26;" horiz-adv-x="1538" d="M102 397q0 56 19.5 114t62.5 116t104 105t152.5 79.5t200.5 40.5v8q-113 1 -199 27t-133.5 67.5t-70.5 88t-23 96.5q0 137 124 218t327 81q96 0 180 -21.5t140 -67.5t56 -108q0 -53 -28.5 -79.5t-65.5 -26.5q-56 0 -86.5 37t-30.5 94q0 60 27 112q-79 27 -141 27 q-51 0 -101 -17t-93.5 -49.5t-71 -89t-27.5 -127.5q0 -53 17 -95.5t47 -69t63.5 -44.5t75 -27t71 -13t62.5 -5l-6 -24q-56 -2 -115 -19.5t-117 -54t-103.5 -86t-73.5 -122t-28 -156.5q0 -57 13.5 -114t47 -116.5t83 -104.5t129 -73.5t178.5 -28.5q121 0 221 29t167 76 t113 109.5t66.5 127.5t20.5 131q0 125 -91.5 225.5t-224.5 100.5q-70 0 -124.5 -20.5t-86 -53.5t-47.5 -70t-16 -75q0 -76 60 -127t155 -51q-8 28 -8 53q0 48 25.5 83.5t72.5 35.5q36 0 58 -21.5t22 -54.5q0 -58 -47.5 -89.5t-114.5 -31.5q-116 0 -194 58.5t-78 154.5 q0 82 40.5 142.5t105.5 95t143 59.5t156.5 43t143.5 37.5t105.5 51.5t40.5 77q0 43 -37.5 64.5t-89.5 21.5q-4 0 -14 -1t-15 -1q4 -32 4 -55q0 -45 -21 -76t-67 -31q-30 0 -50.5 17.5t-20.5 50.5q0 61 52.5 92t123.5 31q93 0 155 -46t62 -131q0 -71 -68.5 -134.5 t-222.5 -94.5q146 -140 146 -323q0 -97 -43 -189t-121.5 -165.5t-202.5 -118t-274 -44.5q-164 0 -290.5 36.5t-202.5 100.5t-114.5 147t-38.5 181z" />
<glyph unicode="'" horiz-adv-x="372" d="M104 1370q-5 29 16 54.5t64 25.5q48 0 69 -25t15 -63l-69 -434h-25z" />
<glyph unicode="(" horiz-adv-x="671" d="M123 532q0 272 117.5 527.5t337.5 441.5l14 -14q-151 -167 -227 -414.5t-76 -515.5t75.5 -517.5t227.5 -424.5l-14 -16q-221 168 -338 414t-117 519z" />
<glyph unicode=")" horiz-adv-x="671" d="M78 -385q152 175 227.5 424.5t75.5 517.5t-76 515.5t-227 414.5l14 14q220 -186 337.5 -441.5t117.5 -527.5q0 -273 -117 -519t-338 -414z" />
<glyph unicode="*" horiz-adv-x="825" d="M131 1198q0 35 20.5 59.5t45.5 24.5q13 0 30 -10l158 -117l-6 -18h-193q-24 0 -39.5 17t-15.5 44zM211 952q0 25 22 41l158 117l17 -10l-58 -187q-12 -36 -53 -36q-31 0 -58.5 24.5t-27.5 50.5zM354 1384q0 25 20.5 42.5t53.5 17.5q31 0 51.5 -16t20.5 -39q0 -11 -2 -17 l-62 -186h-18l-62 182q-2 6 -2 16zM451 1098l14 12l158 -113q20 -14 20 -43q0 -27 -26.5 -53.5t-59.5 -26.5q-35 0 -47 37zM471 1155l156 119q11 8 28 8q27 0 48.5 -24t21.5 -62q0 -27 -13.5 -43t-37.5 -16h-197z" />
<glyph unicode="+" d="M125 586v28h407v402h29v-402h402v-28h-402v-408h-29v408h-407z" />
<glyph unicode="," horiz-adv-x="466" d="M125 92q0 45 29.5 77t74.5 32q58 0 90.5 -42t32.5 -112q0 -81 -55 -187t-133 -173l-14 16q62 59 110 148t49 161q-36 -26 -78 -26q-45 0 -75.5 28.5t-30.5 77.5z" />
<glyph unicode="-" horiz-adv-x="608" d="M61 492v34h486v-34h-486z" />
<glyph unicode="." horiz-adv-x="419" d="M102 92q0 46 31.5 77.5t75.5 31.5q46 0 77 -31.5t31 -77.5q0 -44 -31 -75t-77 -31q-44 0 -75.5 31t-31.5 75z" />
<glyph unicode="/" horiz-adv-x="583" d="M2 -86l553 1563h25l-551 -1563h-27z" />
<glyph unicode="0" d="M82 676q0 103 14.5 198.5t48 186.5t84.5 158t129.5 108t176.5 41q100 0 178.5 -39t128.5 -103.5t82.5 -155t45.5 -186.5t13 -206q0 -102 -14 -198.5t-48 -189t-84 -161t-127.5 -110.5t-174.5 -42q-99 0 -178 39.5t-129.5 105.5t-84 157.5t-47.5 189t-14 207.5zM268 680 q0 -108 8.5 -204t28.5 -184t50 -151.5t76 -101t104 -37.5q73 0 126.5 55t82.5 152.5t42 213t13 255.5q0 150 -13 265.5t-42.5 208.5t-83 142t-128.5 49q-58 0 -104 -37t-75.5 -99t-49 -148.5t-27.5 -180t-8 -198.5z" />
<glyph unicode="1" d="M213 1253l405 117l7 -4v-1208q0 -39 14.5 -64.5t36.5 -36t47 -16.5t47 -7t36.5 -6t14.5 -16v-12h-563v12q0 12 20.5 16.5t49 8.5t57.5 14t49.5 40t20.5 79v965q0 64 -23.5 88t-91.5 18l-94 -10q-29 0 -31 12z" />
<glyph unicode="2" d="M35 16q80 105 191 222t192 199t157.5 176.5t117 197t40.5 217.5q0 140 -80 223.5t-209 83.5q-117 0 -223 -92q34 -23 53 -58.5t19 -72.5q0 -47 -28 -80t-77 -33q-37 0 -58 27t-21 66q0 38 24.5 84t69 89.5t120 73t166.5 29.5q112 0 197.5 -28.5t134.5 -77t73 -105.5 t24 -121q0 -89 -55 -186t-145.5 -188.5t-185 -174.5t-197.5 -177t-159 -163l2 -6h422q61 0 100 2.5t74 13.5t54 22t44 41.5t41 57t48 82.5q13 24 28 19l8 -2l-102 -377h-852z" />
<glyph unicode="3" d="M63 258q0 64 39 118.5t119 76.5l17 -15q-25 -61 -25 -131q0 -131 70.5 -218t193.5 -87q74 0 131 30.5t89 81.5t47.5 109.5t15.5 122.5q0 174 -101.5 267.5t-265.5 93.5q-51 0 -110 -9l-7 27q205 51 310.5 135.5t105.5 233.5q0 116 -70 178.5t-176 62.5q-114 0 -190 -61 q57 -51 57 -135q0 -49 -25 -82t-75 -33q-42 0 -67 28.5t-25 69.5q0 38 23 80t66 79.5t113.5 62t155.5 24.5q92 0 165.5 -21t116 -52.5t70.5 -72.5t38 -76.5t10 -68.5q0 -55 -25.5 -107.5t-77 -101t-142 -82t-208.5 -43.5v-10h33q94 0 179 -22.5t153.5 -66.5t109.5 -116 t41 -163q0 -115 -65.5 -205t-169.5 -136.5t-224 -46.5q-112 0 -208 35t-154 100t-58 146z" />
<glyph unicode="4" d="M68 371v24q149 212 275 440t267 515h213q-189 -298 -380 -542t-345 -409h545v379q50 10 94.5 39t67.5 62h10v-478l201 -2v-28h-201v-213q0 -46 20.5 -73.5t49.5 -36t57.5 -11.5t49 -8t20.5 -17v-12h-563v12q0 12 20 16.5t48.5 8.5t57 14t48.5 40t20 79v201h-575z" />
<glyph unicode="5" d="M57 258q0 64 39 118.5t119 76.5l16 -15q-24 -58 -24 -131q0 -305 264 -305q66 0 117 25.5t81.5 65.5t50.5 94t27 104.5t7 103.5q0 179 -94.5 274t-239.5 95q-107 0 -219 -62l-23 7l90 618h359q149 0 192.5 16.5t83.5 96.5q11 25 27 20l8 -2l-72 -284q-204 12 -366 12 h-228l-65 -453q139 84 299 84q115 0 212 -48t157.5 -141.5t60.5 -213.5t-55 -218.5t-160.5 -158.5t-243.5 -60q-112 0 -208 35t-154 100t-58 146z" />
<glyph unicode="6" d="M88 467q0 126 40.5 247.5t111 222t164.5 186.5t202.5 148t224.5 99l9 -20q-273 -115 -417 -338t-144 -537q0 -96 10.5 -172t37 -148.5t80.5 -112.5t132 -40q67 0 116 37.5t75.5 101.5t39 135t12.5 150q0 64 -13.5 125.5t-41.5 119.5t-81 94t-124 36q-42 0 -112 -19l-7 17 q88 45 199 45q164 0 265.5 -114.5t101.5 -295.5q0 -91 -29.5 -173t-85 -145.5t-141.5 -101t-191 -37.5q-90 0 -163 25.5t-123 70t-83.5 107t-49 134.5t-15.5 153z" />
<glyph unicode="7" d="M119 1034l90 332q430 -16 506 -16h262l10 -11q-42 -90 -84 -183t-87 -200.5t-77.5 -184.5t-82.5 -203t-73 -184.5t-79 -200.5t-72 -183h-211q138 261 217 408.5t209.5 375t249.5 414.5h-395q-79 0 -119.5 -2.5t-79 -9t-60.5 -24t-42 -42t-45 -69.5q-13 -24 -29 -19z" />
<glyph unicode="8" d="M109 322q0 111 71.5 219t206.5 174q-52 34 -89 64.5t-70.5 69.5t-50.5 85t-17 98q0 149 104 243.5t275 94.5q161 0 260.5 -88.5t99.5 -239.5q0 -97 -66 -181t-169 -128q57 -33 94.5 -57.5t83 -62.5t72 -75t45 -88t18.5 -108q0 -155 -120 -260t-318 -105q-195 0 -312.5 90 t-117.5 255zM272 346q0 -162 74 -253t219 -91q118 0 195.5 69.5t77.5 180.5q0 41 -11 79t-27 67.5t-45.5 61t-54.5 53t-66.5 50t-69.5 45t-75.5 45l-72.5 43.5q-55 -47 -89.5 -115.5t-44.5 -124t-10 -110.5zM309 1098q0 -35 10.5 -68t23.5 -57.5t42.5 -53t49 -45t62 -43.5 t63.5 -39t71 -40q67 58 95 136.5t28 153.5q0 133 -64.5 217t-173.5 84q-95 0 -151 -62.5t-56 -182.5z" />
<glyph unicode="9" d="M94 924q0 122 50.5 221.5t153.5 161t243 61.5q111 0 196.5 -39t136 -107.5t76 -154.5t25.5 -186q0 -154 -60 -297.5t-163.5 -255.5t-236.5 -198t-284 -138l-8 20q280 129 422.5 353.5t142.5 506.5q0 73 -7 137t-25.5 127t-47.5 107.5t-76 72t-108 27.5q-67 0 -116 -35.5 t-75.5 -97t-39 -130.5t-12.5 -148q0 -50 7.5 -98t27 -96.5t48 -84.5t74.5 -59t103 -23q42 0 112 19l6 -17q-88 -45 -198 -45q-165 0 -266 108.5t-101 287.5z" />
<glyph unicode=":" horiz-adv-x="419" d="M102 92q0 46 31.5 77.5t75.5 31.5q46 0 77 -31.5t31 -77.5q0 -44 -31 -75t-77 -31q-44 0 -75.5 31t-31.5 75zM102 698q0 46 31.5 77.5t75.5 31.5q46 0 77 -31.5t31 -77.5q0 -44 -31 -75t-77 -31q-44 0 -75.5 31t-31.5 75z" />
<glyph unicode=";" horiz-adv-x="419" d="M96 92q0 45 30 77t75 32q58 0 90.5 -42t32.5 -112q0 -81 -55 -187t-134 -173l-14 16q62 59 110.5 148t49.5 161q-36 -26 -78 -26q-45 0 -76 28.5t-31 77.5zM102 698q0 46 31.5 77.5t75.5 31.5q46 0 77 -31.5t31 -77.5q0 -44 -31 -75t-77 -31q-44 0 -75.5 31t-31.5 75z " />
<glyph unicode="&#x3c;" d="M106 571v25l859 416v-33l-820 -395l820 -398v-34z" />
<glyph unicode="=" d="M129 410v26h832v-26h-832zM129 723v27h832v-27h-832z" />
<glyph unicode="&#x3e;" d="M106 152v34l820 398l-820 395v33l859 -416v-25z" />
<glyph unicode="?" horiz-adv-x="1024" d="M166 1196q0 103 102 162t264 59q71 0 133.5 -12t118.5 -38t88.5 -75.5t32.5 -117.5q0 -46 -27.5 -96t-71 -95.5t-96 -91.5t-105.5 -90.5t-96.5 -87.5t-71 -87.5t-27.5 -84.5q0 -91 106 -189l-14 -20q-112 44 -186 119t-74 163q0 52 47 113t113.5 118.5t133 116 t113.5 123.5t47 123q0 91 -59 136t-145 45q-73 0 -146 -25q29 -53 29 -113q0 -63 -31.5 -107t-91.5 -44q-36 0 -61 24.5t-25 71.5zM358 92q0 46 31.5 77.5t75.5 31.5q46 0 77 -31.5t31 -77.5q0 -44 -31 -75t-77 -31q-44 0 -75.5 31t-31.5 75z" />
<glyph unicode="@" horiz-adv-x="1968" d="M106 614q0 181 69 342.5t189.5 278.5t293 185.5t370.5 68.5q139 0 263.5 -29.5t228.5 -90t180 -145.5t118 -201t42 -253q0 -109 -35.5 -203.5t-96 -160t-141.5 -103t-170 -37.5q-85 0 -155.5 32.5t-92.5 100.5h-10q-63 -67 -129.5 -91.5t-150.5 -24.5q-88 0 -149.5 50 t-61.5 140q0 76 35.5 132t95.5 86t126.5 43.5t141.5 13.5q40 0 94 -7v117q0 32 -3 58.5t-13 56t-27.5 49.5t-48 33.5t-72.5 13.5q-96 0 -161 -51q26 -17 41.5 -47.5t15.5 -63.5q0 -40 -23.5 -67t-66.5 -27q-34 0 -55 23.5t-21 56.5q0 22 10.5 47.5t34 53t57.5 50t86.5 36.5 t114.5 14q279 0 279 -271v-348q0 -92 26 -137t99 -45q162 0 279.5 135t117.5 340q0 162 -63 294.5t-172 219t-255 133.5t-313 47q-189 0 -355.5 -65t-284 -177t-185.5 -267.5t-68 -331.5q0 -184 62 -343t170.5 -272t263 -177.5t332.5 -64.5q177 0 290 35l7 -26 q-118 -39 -308 -39q-181 0 -339 67.5t-269 184.5t-174.5 280t-63.5 348zM821 492q0 -82 33.5 -124t95.5 -42q60 0 119.5 32t91.5 82v279q-28 4 -63 4q-142 0 -209.5 -63t-67.5 -168z" />
<glyph unicode="A" horiz-adv-x="1468" d="M12 0v10q0 12 18 17.5t47.5 13.5t62.5 23.5t68 56.5t58 104l363 946q17 41 17 70q0 23 -10 39q-22 38 -58 47.5t-71.5 18.5t-35.5 24v10h326l452 -1198q24 -62 60.5 -97t66 -41t51 -14t21.5 -22v-8h-530v12q0 12 23.5 19t51 11.5t51 27t23.5 61.5q0 28 -10 53l-101 265 h-563l-63 -175q-31 -91 -31 -118q0 -49 29 -76.5t64 -33.5t64 -14t29 -22v-10h-473zM408 481h532l-264 713h-6z" />
<glyph unicode="B" horiz-adv-x="1378" d="M74 0v12q0 12 23 17t55 11.5t64.5 22.5t55.5 60.5t23 114.5v931q0 61 -23 98.5t-55.5 51t-64.5 19t-55 10.5t-23 18v14h682q101 0 181.5 -19t131.5 -50t85.5 -73t48.5 -86t14 -91q0 -87 -57 -154.5t-146 -104t-195 -42.5q115 -8 206.5 -43.5t147.5 -88t85.5 -114.5 t29.5 -129q0 -55 -15.5 -107t-53.5 -103.5t-95.5 -89.5t-148.5 -61.5t-205 -23.5h-696zM487 248q0 -110 38.5 -163.5t150.5 -53.5h35q162 0 263 91.5t101 262.5q0 76 -24.5 138t-63.5 101t-89 66t-99 38t-97 11h-215v-491zM487 770h195q44 0 85.5 7t86.5 28.5t78 55 t54.5 90.5t21.5 132q0 36 -10.5 71.5t-35 71t-61 62.5t-94 43.5t-127.5 16.5h-193v-578z" />
<glyph unicode="C" horiz-adv-x="1386" d="M92 666q0 149 47.5 281.5t134.5 232.5t219 158.5t291 58.5q174 0 387 -64l68 97h18l19 -488h-12q-11 0 -21.5 23.5t-24 61t-33 82.5t-53 90t-78 82.5t-114.5 61t-156 23.5q-85 0 -156 -27.5t-122.5 -77t-90.5 -115t-62 -145.5t-34.5 -164.5t-11.5 -174.5 q0 -109 18 -205.5t57 -179t94.5 -142.5t134.5 -93.5t175 -33.5q109 0 190 26t135.5 78t89 115t61.5 152q7 21 13.5 47t10.5 41t9 29.5t11.5 21t14.5 6.5h10q-8 -185 -20 -561h-21l-69 98q-239 -81 -443 -81q-162 0 -293 51.5t-216.5 143t-131 217t-45.5 274.5z" />
<glyph unicode="D" horiz-adv-x="1579" d="M74 0v12q0 11 16.5 16.5t41 7.5t53 13t53 28.5t41 58.5t16.5 100v933q0 61 -23 99t-55.5 51.5t-64.5 19t-55 10.5t-23 17v14h585q136 0 257.5 -26t225 -81t178 -134.5t117 -192.5t42.5 -250q0 -57 -9.5 -117.5t-34.5 -130t-63 -132t-99.5 -121t-139.5 -101.5t-188 -68.5 t-240 -25.5h-631zM487 215q0 -93 44 -138.5t137 -45.5h49q90 0 167.5 19.5t148.5 67t121.5 120.5t80 186.5t29.5 257.5q0 158 -34.5 278.5t-107.5 208.5t-194.5 133.5t-288.5 45.5h-152v-1133z" />
<glyph unicode="E" horiz-adv-x="1382" d="M72 0v12q0 10 12.5 14.5t32.5 7.5t43.5 7.5t47.5 17t44 32t32.5 57t12.5 88.5v933q0 61 -23 98.5t-56.5 51t-66.5 19t-56 10.5t-23 18v14h716q231 0 383 56l56 -453h-13q-12 0 -22 15t-21 46t-12 33q-64 157 -145.5 214t-247.5 57h-277v-609h201q55 0 97 14.5t65 38 t39 52t23 56.5t11.5 51.5t10 38t14.5 14.5h11v-574h-11q-11 0 -17 15.5t-10 40t-9.5 54t-19.5 59.5t-36 54.5t-62.5 40t-95.5 15.5h-211v-504q0 -174 187 -174h119q190 0 307 99t207 329q11 28 30 28h11l-117 -524q-181 37 -379 37h-782z" />
<glyph unicode="F" horiz-adv-x="1277" d="M76 1366v14h743q247 0 377 56l55 -451q-4 -2 -10 -2q-12 0 -20.5 12t-20.5 44.5t-16 41.5q-71 152 -156 209.5t-244 57.5h-288v-635h229q63 0 108 19.5t67 49t36.5 63.5t19 63.5t11.5 49t18 19.5h9v-574h-11q-12 0 -18.5 20.5t-9.5 51.5t-15.5 66.5t-32.5 66.5t-65 51.5 t-109 20.5h-237v-453q0 -66 23.5 -108t57 -57t67.5 -21.5t57.5 -12.5t23.5 -18v-10h-643v10q0 12 16.5 18t41 8.5t53 14.5t53 32.5t41 67t16.5 113.5v905q0 61 -23.5 98.5t-56.5 51t-66.5 19t-57 10.5t-23.5 18z" />
<glyph unicode="G" horiz-adv-x="1546" d="M92 672q0 149 49.5 281t139.5 230.5t224.5 156t295.5 57.5q163 0 395 -68l70 101h18l19 -502h-9q-20 0 -41 68q-4 11 -6 18q-19 57 -41 102.5t-59 94t-83 81t-113.5 53.5t-149.5 21q-102 0 -185.5 -37t-140 -101t-95 -153.5t-56 -191.5t-17.5 -217q0 -114 16.5 -210.5 t53 -180t92 -142t137.5 -92t185 -33.5q118 0 217 50t155 126v291q0 52 -23 86t-55.5 47t-65.5 19t-56 12t-23 18v13h590v-13q0 -10 -13.5 -14.5t-33.5 -6.5t-44 -10.5t-44 -23t-33.5 -48t-13.5 -81.5v-450l-17 -9l-98 72q-84 -35 -135.5 -53t-138.5 -35.5t-175 -17.5 q-320 0 -506 189.5t-186 502.5z" />
<glyph unicode="H" horiz-adv-x="1681" d="M74 0v10q0 14 23 20t55 12.5t64.5 25t55.5 71t23 135.5v908q0 55 -23 90t-55.5 47.5t-64.5 18.5t-55 11.5t-23 18.5v10h641v-10q0 -13 -23.5 -19t-57.5 -12t-68 -18.5t-57.5 -46.5t-23.5 -88v-441h703v439q0 54 -22.5 89t-55 48t-64.5 19t-54.5 12t-22.5 18v10h639v-10 q0 -13 -23.5 -18.5t-57.5 -11t-68 -18t-57.5 -47t-23.5 -89.5v-912q0 -71 17 -119.5t42.5 -68.5t55.5 -32t55.5 -13.5t42.5 -8t17 -20.5v-10h-641v10q0 11 16.5 17.5t41 9t53 13.5t53 28.5t41 56t16.5 94.5v482h-703v-484q0 -66 23.5 -108t57.5 -57t68 -21.5t57.5 -12 t23.5 -18.5v-10h-641z" />
<glyph unicode="I" horiz-adv-x="821" d="M90 0v10q0 11 16 17.5t40.5 8.5t53 12.5t53 28t40.5 56.5t16 96v953q0 55 -22.5 90.5t-54.5 48t-64.5 18.5t-55 11.5t-22.5 17.5v12h641v-12q0 -12 -23.5 -18t-57.5 -11.5t-67.5 -18.5t-57 -47.5t-23.5 -88.5v-957q0 -56 17 -95t42.5 -55.5t55 -27t55 -13t42.5 -8.5 t17 -18v-10h-641z" />
<glyph unicode="J" horiz-adv-x="749" d="M-152 -305q0 53 33.5 82.5t85.5 29.5t98 -43.5t56 -130.5q39 22 66.5 45.5t46 57t29 66t16 86.5t7 102.5t1.5 128.5v1063q0 55 -23 90.5t-56 48t-66 18.5t-56 11.5t-23 17.5v12h650v-12q0 -12 -24 -18t-58.5 -11.5t-69 -18.5t-58.5 -47.5t-24 -88.5v-996q0 -188 -98 -338 q-76 -118 -177 -197t-210 -79q-53 0 -99.5 31t-46.5 90z" />
<glyph unicode="K" horiz-adv-x="1503" d="M74 0v10q0 12 16.5 18t41 8t53 14.5t53 33t41 68t16.5 116.5v914q0 55 -23 90t-55.5 47.5t-64.5 18.5t-55 11.5t-23 18.5v10h643v-10q0 -13 -23.5 -19t-57.5 -12t-68 -18.5t-57.5 -46.5t-23.5 -88v-453h187l348 410q61 72 61 119q0 35 -22.5 53.5t-49 21.5t-49 10.5 t-22.5 22.5v12h522v-10q0 -12 -20 -19t-59 -18t-86 -30t-112 -66.5t-126 -116.5l-283 -319l436 -606q34 -48 71.5 -81t68.5 -47t59.5 -23t48.5 -10.5t31.5 -7t11.5 -16.5v-10h-594v12q0 11 20 17t44.5 9.5t44.5 18t20 39.5q0 37 -34 84l-373 518h-144v-471q0 -66 23 -108 t55.5 -57t65 -21.5t55.5 -12t23 -18.5v-10h-635z" />
<glyph unicode="L" horiz-adv-x="1382" d="M96 0v12q0 11 16.5 16.5t42 7.5t54.5 13t54.5 29t42 59.5t16.5 100.5v944q0 55 -22.5 90t-55 47.5t-65 18.5t-55 11.5t-22.5 18.5v10h643v-10q0 -11 -17 -17.5t-42.5 -9t-55 -12t-55 -23.5t-42.5 -46t-17 -78q0 -110 -1 -488.5t-1 -488.5q0 -86 44.5 -130t141.5 -44h111 q102 0 177 24t135 80.5t106.5 134.5t97.5 201q11 25 25 25q12 0 14 -2l-111 -519q-78 25 -329 25h-830z" />
<glyph unicode="M" horiz-adv-x="1916" d="M68 0v10q0 12 16.5 19t41.5 10.5t54.5 19t55 40t43.5 79t20 131.5l20 860q1 56 -21 92.5t-54 50t-64.5 20.5t-55 13.5t-22.5 18.5v16h379l502 -905l442 905h400v-16q0 -12 -23.5 -18.5t-57.5 -14t-67 -21.5t-56 -50.5t-22 -92.5l21 -948q1 -62 25 -101.5t57 -54.5 t66.5 -22t56.5 -13t24 -18v-10h-632v10q0 13 22.5 20t54.5 14.5t64 21.5q32 16 54 54q21 37 20 92v5l-21 1053h-4l-406 -828l140 -254l-21 -12q-50 54 -102.5 75t-132.5 23q-65 128 -253 454t-274 505h-4l-18 -924v-19q0 -77 22 -145q15 -46 51 -71t71 -29.5t62 -12 t27 -22.5v-10h-501z" />
<glyph unicode="N" horiz-adv-x="1613" d="M68 0v10q0 15 14.5 21t47.5 11.5t54 12.5q60 21 88.5 79.5t28.5 180.5v859q0 57 -22.5 92.5t-54.5 48.5t-64.5 19t-55 11.5t-22.5 18.5v16h391q134 -178 402.5 -530.5t402.5 -530.5v775q0 58 -13 102t-34 67.5t-46.5 39t-51 22t-46.5 11t-34 11t-13 17.5v14h508v-12 q0 -12 -17.5 -19.5t-44.5 -13.5t-56 -15.5t-56 -32t-39 -56.5q-22 -59 -22 -164v-1079h-33l-799 1052q-76 97 -141 193h-4v-944q0 -71 17.5 -121.5t44 -73t57 -36t57 -17t44 -10t17.5 -19.5v-10h-505z" />
<glyph unicode="O" horiz-adv-x="1568" d="M92 686q0 146 50 276.5t139 227t218.5 153t280.5 56.5q156 0 288 -56t221 -151.5t138.5 -225t49.5 -274.5q0 -196 -86.5 -358t-247 -258t-363.5 -96q-162 0 -293.5 55t-217 151t-131.5 224t-46 276zM309 692q0 -104 14 -198t48.5 -185.5t87.5 -157.5t137.5 -106.5 t191.5 -40.5q103 0 185 39t134.5 103t88 152.5t50 182.5t14.5 197q0 87 -10 167.5t-31.5 160.5t-59.5 145t-89.5 115t-125.5 78t-164 28q-100 0 -181.5 -40t-134.5 -106t-88.5 -155t-51 -183.5t-15.5 -195.5z" />
<glyph unicode="P" horiz-adv-x="1253" d="M74 1366v14h571q267 0 411 -109t144 -288q0 -85 -29 -154.5t-78 -116t-115.5 -78t-139.5 -45.5t-152 -14q-108 0 -197 15v-363q0 -66 23.5 -108t57.5 -57t68 -21.5t57.5 -12t23.5 -18.5v-10h-643v10q0 11 16 17.5t40.5 9t53 13t53 28t40.5 56.5t16 95v940q0 61 -23 98.5 t-55.5 51t-64.5 19t-55 10.5t-23 18zM489 618q61 -12 160 -12q155 0 246.5 102.5t91.5 268.5q0 93 -32 165.5t-85.5 116.5t-120 66.5t-139.5 22.5h-121v-730z" />
<glyph unicode="Q" horiz-adv-x="1568" d="M92 686q0 146 50 276.5t139 227t218.5 153t280.5 56.5q156 0 288 -56t221 -151.5t138.5 -225t49.5 -274.5q0 -192 -83 -351t-237 -255.5t-350 -103.5q54 -63 182 -63q28 0 60 3q32 -20 95.5 -66t104.5 -73t99.5 -50.5t109.5 -23.5q54 0 123 55l16 -18 q-66 -63 -141.5 -104t-144.5 -41q-55 0 -125.5 33t-130 77t-125 103.5t-100 95.5t-64.5 70q-159 2 -288 58t-212.5 151.5t-128.5 222.5t-45 274zM309 692q0 -104 14 -198t48.5 -185.5t87.5 -157.5t137.5 -106.5t191.5 -40.5q103 0 185 39t134.5 103t88 152.5t50 182.5 t14.5 197q0 87 -10 167.5t-31.5 160.5t-59.5 145t-89.5 115t-125.5 78t-164 28q-100 0 -181.5 -40t-134.5 -106t-88.5 -155t-51 -183.5t-15.5 -195.5z" />
<glyph unicode="R" horiz-adv-x="1425" d="M84 0v10q0 13 16.5 19t41.5 8t53.5 14.5t53.5 33.5t41.5 70t16.5 119v908q0 55 -23 90t-56 47.5t-65.5 18.5t-55.5 11.5t-23 18.5v12h559q261 0 400 -94t139 -262q0 -74 -35 -139.5t-102.5 -117t-176.5 -82t-247 -30.5h-33q79 -98 260 -98l276 -377q44 -60 99 -94 t94.5 -41t67.5 -14.5t28 -22.5v-8h-379l-481 655h-55v-428q0 -66 24 -108t58 -57t67.5 -21.5t57.5 -12t24 -18.5v-10h-645zM498 686h96q178 0 280.5 93t102.5 239q0 82 -30 146t-82.5 103.5t-119.5 60t-145 20.5h-102v-662z" />
<glyph unicode="S" horiz-adv-x="1148" d="M70 225q0 52 32 82.5t72 30.5q68 0 105.5 -45.5t37.5 -114.5q0 -62 -30 -123q105 -51 237 -51q159 0 270 88.5t111 224.5q0 58 -27 106.5t-72 84.5t-103.5 67.5t-123.5 59.5l-130 56t-123.5 62t-103.5 73t-72 92.5t-27 117.5q0 113 63.5 196.5t167.5 125t234 41.5 q105 0 197 -27.5t152 -83t60 -127.5q0 -51 -28 -79.5t-68 -28.5q-65 0 -100 44.5t-35 112.5q0 66 29 125q-95 35 -207 35q-111 0 -196 -71.5t-85 -194.5q0 -53 33 -97.5t87 -76t123 -64.5t141 -61.5t141 -69t123 -85t87 -111t33 -146.5q0 -104 -47.5 -185.5t-127 -130 t-175 -73t-201.5 -24.5q-193 0 -323.5 68.5t-130.5 176.5z" />
<glyph unicode="T" horiz-adv-x="1320" d="M25 963l51 458q110 -23 237.5 -32t343.5 -9q169 0 247 1.5t172 12t167 31.5l51 -462q-2 0 -6 -1t-6 -1q-16 0 -25 24l-22 66q-31 91 -63 145.5t-81.5 90t-115.5 48.5t-168 13h-53q0 -188 -1 -562.5t-1 -562.5q0 -64 24.5 -104.5t59 -55.5t69.5 -21.5t59.5 -12.5t24.5 -19 v-10h-657v10q0 13 23.5 19t56.5 13t66.5 22t57 55.5t23.5 103.5v1125h-47q-76 0 -131.5 -7.5t-100 -27t-75 -44.5t-57.5 -69.5t-46.5 -93t-42.5 -121.5q-9 -24 -22 -24q-11 0 -12 2z" />
<glyph unicode="U" horiz-adv-x="1673" d="M66 1368v12h645v-12q0 -13 -24 -19t-58 -11.5t-68 -18t-58 -47t-24 -88.5v-709q0 -86 10 -151.5t37.5 -126t73 -99t119.5 -61.5t174 -23q208 0 330.5 137t122.5 396v577q0 60 -18 102.5t-44.5 62.5t-57.5 33t-57.5 17t-44.5 11t-18 18v10h508v-10q0 -11 -17.5 -18 t-43.5 -11t-56 -17t-56 -33t-43.5 -63t-17.5 -102v-567q0 -284 -133 -432t-387 -148q-100 0 -183.5 16t-157 53.5t-124 94.5t-79.5 144t-29 198v699q0 55 -23 90t-55.5 47.5t-64.5 18.5t-55 11.5t-23 18.5z" />
<glyph unicode="V" horiz-adv-x="1462" d="M20 1370v8h560v-10q0 -14 -26 -22t-57 -12.5t-57 -26t-26 -58.5q0 -15 14 -55l373 -952h4l338 893q22 56 22 94q0 31 -13 53t-32 32t-42 17t-42 10t-32 9.5t-13 17.5v10h453v-10q-1 -11 -18.5 -16t-47 -13t-62.5 -25t-70 -63.5t-64 -117.5l-441 -1145h-22l-494 1208 q-24 60 -62 94t-68 41t-52.5 15.5t-22.5 23.5z" />
<glyph unicode="W" horiz-adv-x="2072" d="M16 1370v10h547v-12q0 -13 -25.5 -20t-56.5 -11t-56.5 -27t-25.5 -63q0 -10 13 -53l311 -911h2l272 874q11 40 11 68q0 18 -4 32q-12 35 -44.5 54t-66 25t-60 13.5t-26.5 20.5v10h547v-8q0 -16 -38 -25.5t-77.5 -20t-62.5 -48.5q-10 -17 -10 -42q0 -30 16 -71l331 -884h5 l251 833q23 78 23 107q0 41 -17.5 67.5t-42.5 36.5t-50 15.5t-42.5 11t-17.5 16.5v12h440v-12q0 -11 -18.5 -16.5t-48 -13t-62 -24.5t-66.5 -62t-55 -115l-350 -1147h-24l-248 649q-130 343 -172 459h-4q-144 -455 -346 -1110h-25l-420 1208q-18 51 -45.5 83.5t-54.5 44.5 t-52 18t-40 11.5t-15 16.5z" />
<glyph unicode="X" horiz-adv-x="1452" d="M16 0v8q0 12 12.5 18t34.5 9t55.5 16.5t71 34.5t86.5 68.5t97 113.5l278 389l-309 467q-50 73 -68 95q-39 49 -82 78t-71 35t-47 13.5t-19 20.5v12h600v-12q0 -13 -25.5 -22t-56 -14.5t-56 -24.5t-25.5 -50q0 -38 71 -145l203 -307l192 278q82 120 82 170 q0 34 -21.5 53.5t-48 25t-48 14.5t-21.5 24v10h481v-10q0 -13 -13 -20.5t-36 -11t-59 -17.5t-75 -36t-90 -70.5t-99 -116.5l-228 -322l338 -510q23 -34 74 -102q40 -52 86.5 -82.5t78 -37t52.5 -13t21 -17.5v-12h-623v10q0 13 26.5 21t57.5 12t57.5 21.5t26.5 48.5 q0 47 -39 106l-270 410l-195 -279q-125 -174 -125 -229q0 -33 26 -53t57 -25.5t57 -14t26 -20.5v-8h-498z" />
<glyph unicode="Y" horiz-adv-x="1347" d="M12 1368v10h576v-12q0 -12 -26 -21t-57 -15t-57 -24.5t-26 -48.5q0 -20 14 -45l314 -546h4l198 368q80 146 80 209q0 38 -25.5 60.5t-55.5 28.5t-55.5 14t-25.5 20v12h463v-12q0 -11 -13 -17t-34.5 -9t-51.5 -15.5t-62 -32t-69 -62t-69 -102.5q-204 -380 -268 -503v-398 q0 -66 23.5 -108t57 -57t67.5 -21.5t57.5 -12t23.5 -18.5v-10h-641v10q0 11 16 17.5t40.5 9t53 13t53 28t40.5 56.5t16 95v371l-344 596q-33 58 -74.5 92.5t-71.5 42.5t-50.5 16t-20.5 21z" />
<glyph unicode="Z" horiz-adv-x="1327" d="M47 0v27q105 153 462 660.5t462 660.5h-383q-97 0 -164 -18.5t-116.5 -64t-82.5 -110.5t-65 -170q-10 -24 -23 -24q-2 0 -6 1t-6 1l53 464q136 -47 447 -47h577v-28q-111 -165 -462.5 -674.5t-444.5 -646.5h399q94 0 159 13t118.5 40.5t98 83.5t84 129t89.5 190q4 8 6 11 t5.5 8t7.5 6.5t10 1.5q2 -2 10 -2q-22 -118 -64.5 -322t-50.5 -233q-176 43 -403 43h-717z" />
<glyph unicode="[" horiz-adv-x="550" d="M143 -381v1866h346v-25h-180v-1818h180v-23h-346z" />
<glyph unicode="\" horiz-adv-x="583" d="M2 1477h25l553 -1563h-27z" />
<glyph unicode="]" horiz-adv-x="550" d="M61 -358h181v1818h-181v25h347v-1866h-347v23z" />
<glyph unicode="^" horiz-adv-x="1136" d="M143 748l414 665h18l418 -665h-30l-398 632l-391 -632h-31z" />
<glyph unicode="_" horiz-adv-x="1024" d="M0 -160h1024v-28h-1024v28z" />
<glyph unicode="`" horiz-adv-x="958" d="M252 1307q0 28 17 48.5t48 20.5q24 0 42.5 -17.5t38 -49.5t43.5 -70t72 -87t110 -91l-11 -17q-161 48 -260.5 130t-99.5 133z" />
<glyph unicode="a" horiz-adv-x="966" d="M61 199q0 71 28 127t73 91t106.5 58t124.5 32t131 9q58 0 111 -6v133q0 246 -191 246q-111 0 -186 -60q29 -19 46.5 -54.5t17.5 -74.5q0 -46 -26.5 -77t-78.5 -31q-39 0 -62.5 27t-23.5 67q0 25 10 54t35.5 61t62 57.5t95.5 42.5t131 17q96 0 165 -26.5t105.5 -73t53 -99 t16.5 -115.5v-444q0 -80 20 -104t99 -25l2 -21q-72 -30 -142 -30q-69 0 -105.5 28.5t-39.5 106.5h-8q-73 -79 -150 -108.5t-174 -29.5q-102 0 -174 58.5t-72 163.5zM242 219q0 -95 38 -144.5t109 -49.5q70 0 138.5 37.5t107.5 95.5v325q-36 4 -76 4q-163 0 -240 -73 t-77 -195z" />
<glyph unicode="b" horiz-adv-x="1128" d="M14 1450v14q156 18 312 39l8 -6v-453q0 -139 -19 -253h7q62 60 144 93.5t169 33.5q64 0 124 -16.5t114.5 -52.5t95.5 -88.5t65.5 -129t24.5 -168.5q0 -96 -26.5 -182t-78 -154.5t-136 -109t-191.5 -40.5q-190 0 -305 99q-24 -4 -68.5 -38t-69.5 -67h-18v1332 q0 46 -15.5 74.5t-38 37.5t-45 12.5t-38 7.5t-15.5 15zM332 100q105 -77 256 -77q289 0 289 421q0 203 -74.5 312.5t-222.5 109.5q-144 -4 -248 -100v-666z" />
<glyph unicode="c" horiz-adv-x="888" d="M72 434q0 215 132.5 349.5t348.5 134.5q69 0 122.5 -13.5t84 -34t50.5 -47.5t27 -51t7 -47q0 -41 -24 -70.5t-62 -29.5q-47 0 -69.5 30t-22.5 76q0 70 41 127q-65 27 -138 27q-139 0 -225 -116t-86 -339q0 -206 79 -309t220 -103q156 0 287 86l14 -20 q-146 -107 -330 -107q-212 0 -334 122.5t-122 334.5z" />
<glyph unicode="d" horiz-adv-x="1132" d="M72 420q0 234 127 366t336 132q56 0 126.5 -16.5t122.5 -53.5l11 2v453q0 40 -11.5 67.5t-28.5 38t-37 16.5t-37 7t-28.5 6t-11.5 16v12l313 35l9 -8v-1315q0 -40 11.5 -67.5t28.5 -38.5t36.5 -17t36.5 -7t28.5 -6t11.5 -15v-13l-315 -34l-8 8l6 127h-8 q-58 -72 -139 -105t-158 -33q-201 0 -311.5 115.5t-110.5 327.5zM254 434q0 -192 75 -304t208 -112q149 0 256 136v657q-113 76 -240 76q-80 0 -140 -38t-93.5 -104t-49.5 -143.5t-16 -167.5z" />
<glyph unicode="e" horiz-adv-x="976" d="M72 449q0 202 124 335.5t322 133.5q97 0 174.5 -33t125 -89t72.5 -126.5t25 -149.5v-24l-18 -17h-639v-29q0 -208 67 -320q72 -118 242 -118q83 0 162.5 33.5t142.5 91.5l17 -16q-141 -144 -346 -144q-220 0 -345.5 131t-125.5 341zM260 506l469 16v41q0 53 -11 106.5 t-34.5 105t-68 84t-103.5 32.5q-106 0 -173 -106t-79 -279z" />
<glyph unicode="f" horiz-adv-x="626" d="M31 0v12q0 12 17.5 15.5t42 7t49 13t42 40.5t17.5 82v694h-146v29h148v45q0 106 15 205t44 153q51 95 129.5 157.5t183.5 62.5q52 0 89.5 -24.5t37.5 -74.5q0 -36 -30 -61t-68 -25q-58 0 -96 41q-31 31 -43 90q-94 -25 -94 -151v-418h229v-29h-229v-706q0 -46 20 -73.5 t48 -36t56 -11.5t48 -8t20 -17v-12h-530z" />
<glyph unicode="g" horiz-adv-x="956" d="M20 -193q0 57 31.5 96.5t73.5 39.5q39 0 62.5 -27.5t23.5 -56.5q0 -48 -30 -92.5t-89 -69.5q24 -29 48 -49.5t63.5 -43.5t97 -35.5t129.5 -12.5q78 0 137.5 23.5t95 64t53 89t17.5 103.5q0 61 -35.5 101.5t-92 59t-125 29.5t-137.5 17.5t-125.5 17t-92 35t-35.5 64.5 q0 35 35.5 73.5t97.5 65.5l-2 8q-73 40 -110 113.5t-37 163.5q0 143 107 239.5t272 96.5q84 0 168 -31q37 49 97 78.5t116 29.5q44 0 74 -22t30 -64q0 -32 -23.5 -51.5t-56.5 -19.5q-36 0 -71 21.5t-48 74.5q-53 -12 -98 -57q87 -41 136.5 -119.5t49.5 -175.5 q0 -142 -106 -239t-272 -97q-118 0 -199 43q-47 -13 -88 -52t-41 -69t44 -46.5t114.5 -22t155.5 -9t170.5 -14t156 -31.5t114.5 -67t44 -115q0 -62 -32 -121t-91 -107t-153.5 -77t-209.5 -29q-179 0 -296.5 82t-117.5 194zM256 582q0 -58 10 -110t31.5 -99t62 -75t95.5 -28 q54 0 93.5 30t59 80t28.5 102t9 110q0 54 -8.5 102.5t-28 96t-59 76t-94.5 28.5q-69 0 -115.5 -48t-65 -115.5t-18.5 -149.5z" />
<glyph unicode="h" horiz-adv-x="1136" d="M31 0v12q0 12 16.5 15.5t40.5 7t48 13t40.5 40.5t16.5 82v1133q0 40 -11.5 67.5t-28.5 38.5t-37 17t-37 7t-28.5 6t-11.5 15v12l315 35l8 -8v-502q0 -154 -22 -231l8 -2q52 77 132.5 118.5t166.5 41.5q55 0 102 -14t87 -44.5t63 -85t23 -129.5v-487q0 -39 12 -64.5 t30 -36t39.5 -16.5t39.5 -7t30 -6t12 -16v-12h-481v12q0 10 11 15t27.5 6t35.5 7.5t35.5 18.5t27.5 40.5t11 70.5v514q0 91 -43 138.5t-115 47.5q-66 0 -133 -39.5t-99 -99.5v-573q0 -39 11.5 -64.5t28 -36t36.5 -16.5t36.5 -7t28 -6t11.5 -16v-12h-483z" />
<glyph unicode="i" horiz-adv-x="624" d="M72 870v13l319 35l8 -9v-755q0 -44 18 -70.5t43.5 -34.5t51 -11.5t43.5 -8.5t18 -17v-12h-499v12q0 11 16 15t39 8t45.5 13t38.5 38.5t16 77.5v555q0 40 -11.5 67.5t-29 38.5t-38 17t-38 7t-29 6t-11.5 15zM188 1270q0 45 33 77.5t80 32.5t80 -32.5t33 -77.5 q0 -47 -33 -81t-80 -34t-80 34t-33 81z" />
<glyph unicode="j" horiz-adv-x="532" d="M-72 -369q0 33 29 57.5t66 24.5q57 0 86.5 -40.5t31.5 -96.5q64 24 64 113v1030q0 48 -17.5 77t-43 38t-51 12.5t-43 7.5t-17.5 16v13l334 35l8 -9v-903q0 -214 -60 -313q-39 -65 -114 -113.5t-142 -48.5q-52 0 -91.5 25.5t-39.5 74.5zM164 1268q0 45 32.5 77.5 t79.5 32.5t80 -32.5t33 -77.5q0 -47 -33 -81t-80 -34t-79.5 33.5t-32.5 81.5z" />
<glyph unicode="k" horiz-adv-x="1060" d="M29 0v12q0 11 16 16t38.5 10t44.5 16t38 41.5t16 78.5v1133q0 55 -24 84.5t-52.5 33.5t-52.5 9.5t-24 17.5v12l315 41l6 -6v-999h92l185 190q65 68 65 105q0 25 -21.5 39t-47 17t-47 9.5t-21.5 18.5v13h438v-11q0 -8 -4 -12.5t-13 -7.5t-19 -4.5t-27 -5t-31 -7.5 q-109 -32 -225 -154l-119 -123l256 -397q36 -56 80.5 -88.5t76.5 -39.5t54 -13t22 -17v-12h-317l-299 469h-78v-303q0 -35 11 -61t28 -39t36 -21.5t36 -12t28 -8.5t11 -12v-12h-471z" />
<glyph unicode="l" horiz-adv-x="616" d="M51 0v12q0 11 17 15t41 8t48 13t41 38.5t17 77.5v1141q0 48 -17 77t-41 38t-48 12.5t-41 7.5t-17 16v12l326 35l8 -8v-1341q0 -44 19 -70.5t46 -34.5t54 -11.5t46 -8.5t19 -17v-12h-518z" />
<glyph unicode="m" horiz-adv-x="1648" d="M61 0v12q0 12 16 16t39 7t46 12.5t39 40.5t16 82v547q0 40 -11.5 67.5t-28.5 38.5t-37 17t-37 7t-28.5 6t-11.5 15v13l308 34l8 -8l-12 -147l8 -2q109 160 278 160q198 0 248 -164q103 164 281 164q55 0 100 -14t82.5 -44.5t58.5 -85t21 -129.5v-487q0 -39 11.5 -64.5 t28.5 -36t36.5 -16.5t36.5 -7t28.5 -6t11.5 -16v-12h-460v12q0 10 10 15t25.5 6t33 7.5t33 18.5t25.5 40.5t10 70.5v514q0 92 -38 139t-108 47q-64 0 -122 -38.5t-91 -100.5v-573q0 -46 14.5 -73.5t35.5 -36t42 -11.5t35.5 -8t14.5 -17v-12h-451v12q0 10 10.5 14.5t25.5 5.5 t33.5 7.5t33.5 18t25.5 40.5t10.5 72v514q0 92 -37.5 139t-107.5 47q-64 0 -122 -38.5t-91 -100.5v-573q0 -39 10.5 -64.5t26 -36t34 -16.5t34 -7t26 -6t10.5 -16v-12h-467z" />
<glyph unicode="n" horiz-adv-x="1165" d="M61 0v12q0 12 16.5 15.5t40 7t47 13t40 40.5t16.5 82v547q0 40 -11.5 67.5t-28.5 38.5t-36.5 17t-36.5 7t-28.5 6t-11.5 15v13l307 34l8 -8l-12 -147l8 -2q53 77 132 118.5t165 41.5q55 0 102 -14t86.5 -44.5t62.5 -85t23 -129.5v-487q0 -39 12 -64.5t30.5 -36 t39.5 -16.5t39.5 -7t30.5 -6t12 -16v-12h-481v12q0 12 15 16t36.5 7.5t43.5 13.5t37 40.5t15 80.5v514q0 91 -42.5 138.5t-114.5 47.5q-66 0 -133 -39.5t-99 -99.5v-573q0 -39 11.5 -64.5t28 -36t36.5 -16.5t36.5 -7t28 -6t11.5 -16v-12h-482z" />
<glyph unicode="o" d="M72 451q0 200 124.5 333.5t333.5 133.5q217 0 340 -131t123 -332q0 -131 -55 -239t-162 -173.5t-246 -65.5q-110 0 -198 37.5t-144.5 102.5t-86 150t-29.5 184zM254 455q0 -65 8 -125.5t28.5 -121.5t51.5 -105.5t80.5 -72.5t112.5 -28q73 0 129 41t86.5 108t45.5 141 t15 152q0 81 -14.5 155.5t-45 142.5t-87.5 108.5t-134 40.5q-72 0 -127.5 -40t-86.5 -105.5t-46.5 -139.5t-15.5 -151z" />
<glyph unicode="p" horiz-adv-x="1142" d="M20 -430q0 12 16.5 15.5t40 7t47 13t40 40.5t16.5 82v989q0 40 -11.5 67.5t-28.5 38.5t-36.5 17t-36.5 7t-28.5 6t-11.5 15v13l297 34l8 -8l-13 -137l9 -2q119 150 313 150q192 0 311 -119.5t119 -329.5q0 -239 -125.5 -365.5t-337.5 -126.5q-56 0 -127 16.5t-123 53.5 l-10 -2v-330q0 -39 11.5 -64.5t28.5 -35.5t37 -16t37 -7t28.5 -6t11.5 -16v-12h-482v12zM350 84q113 -76 240 -76q80 0 140 38t93.5 103.5t49.5 142.5t16 167q0 192 -75.5 306t-207.5 114q-71 0 -142.5 -32.5t-113.5 -92.5v-670z" />
<glyph unicode="q" horiz-adv-x="1120" d="M72 426q0 96 26.5 182t78 156.5t138.5 112t199 41.5q81 0 159.5 -26.5t133.5 -78.5q85 37 139 113h17v-1200q0 -56 24 -86.5t52.5 -35.5t52.5 -12.5t24 -21.5v-12h-481v12q0 10 11.5 15.5t29.5 7t38 9.5t38 20.5t29.5 42.5t11.5 73v348h-9q-121 -109 -286 -109 q-65 0 -124.5 14t-115.5 47.5t-96.5 84t-65 128.5t-24.5 175zM254 442q0 -209 77.5 -314t221.5 -105q137 0 240 106v668q-97 73 -244 73q-148 0 -221.5 -113t-73.5 -315z" />
<glyph unicode="r" horiz-adv-x="800" d="M72 877v10l313 31l8 -9l-12 -194l8 -2q60 111 125.5 158t142.5 47q53 0 93.5 -29.5t40.5 -77.5q0 -43 -27 -68.5t-68 -25.5q-49 0 -89 40t-40 101q-37 -10 -80 -53t-79 -117v-534q0 -44 19 -70.5t46 -34.5t54 -11.5t46 -8.5t19 -17v-12h-514v12q0 11 16.5 15t40 8t47 13 t40 38.5t16.5 77.5v565q0 39 -12.5 64.5t-30.5 36t-40 17t-40 8t-30.5 6.5t-12.5 16z" />
<glyph unicode="s" horiz-adv-x="817" d="M66 158q0 42 26.5 66t61.5 24q46 0 76 -30t30 -81q0 -67 -29 -106q25 -12 69 -20.5t81 -8.5q86 0 152.5 52.5t66.5 150.5q0 45 -28 81.5t-72.5 61.5t-98.5 48t-108 47.5t-98.5 52.5t-72.5 69.5t-28 93.5q0 114 88 186.5t236 72.5q119 0 201.5 -46t82.5 -127 q0 -39 -23 -60t-56 -21q-39 0 -68 27t-29 75q0 53 21 104q-49 21 -115 21q-22 0 -45 -4.5t-49.5 -17t-46.5 -31t-33.5 -50t-13.5 -71.5q0 -35 22 -64.5t58 -50.5t82 -43t94 -41t94 -46t82 -56.5t58 -74t22 -97.5q0 -66 -32 -118t-85 -84t-117.5 -48.5t-134.5 -16.5 q-131 0 -226 49t-95 132z" />
<glyph unicode="t" horiz-adv-x="647" d="M31 864v29h133q118 78 149 252h23v-252h280v-29h-280v-667q0 -85 24 -127.5t89 -42.5q78 0 172 47l10 -21q-123 -73 -248 -73q-66 0 -110 14t-67 43t-31.5 63t-8.5 82v682h-135z" />
<glyph unicode="u" horiz-adv-x="1146" d="M61 870v13l314 35l8 -9v-700q0 -92 43.5 -141.5t118.5 -49.5q64 0 122.5 40t98.5 110v551q0 40 -11.5 67.5t-28 38.5t-36.5 17t-36.5 7t-28 6t-11.5 15v13l314 35l8 -9v-731q0 -40 11.5 -67.5t29.5 -38.5t38 -17t38 -7t29.5 -6t11.5 -15v-13l-320 -34l-8 8l6 127h-8 q-111 -138 -272 -138q-55 0 -102.5 14t-88.5 44.5t-64.5 85.5t-23.5 129v469q0 40 -11.5 67.5t-28 38.5t-36.5 17t-36.5 7t-28 6t-11.5 15z" />
<glyph unicode="v" horiz-adv-x="1069" d="M23 881v12h503v-12q0 -12 -23 -19t-50.5 -12t-50.5 -24t-23 -52q0 -20 14 -55l219 -500h4l175 463q16 45 16 82q0 38 -23 60t-51 26.5t-51 11.5t-23 19v12h394v-12q0 -10 -15.5 -14.5t-41.5 -11t-55.5 -21t-62 -54t-55.5 -100.5l-264 -692q-4 0 -11.5 -1t-10.5 -1 l-332 731q-26 56 -60 89.5t-59.5 40.5t-43.5 14.5t-19 19.5z" />
<glyph unicode="w" horiz-adv-x="1525" d="M14 881v13h482v-17q0 -10 -22.5 -16.5t-49.5 -11t-49.5 -23.5t-22.5 -52q4 -37 13 -63l184 -492l160 453q12 34 12 65q0 44 -23.5 75.5t-72.5 41.5q-10 2 -23.5 4.5t-20 3.5t-13.5 4t-10 7.5t-3 11.5v9h475v-11q0 -10 -13.5 -15t-38.5 -8.5t-38 -7.5q-45 -14 -45 -72 q0 -29 14 -69l197 -484l145 455q15 54 15 74q0 41 -23 65t-50 29.5t-50 12t-23 16.5v15h387v-15q0 -11 -16 -15t-42 -9t-55.5 -19t-60 -54t-51.5 -104l-223 -690h-25q-56 134 -158.5 389t-123.5 307h-9l-245 -696h-27l-276 727q-23 60 -56.5 94t-60 40t-45.5 12.5t-19 19.5z " />
<glyph unicode="x" horiz-adv-x="1034" d="M20 0v8q0 14 19.5 23t49.5 17.5t78 41.5t93 88l189 230l-238 340q-30 43 -63.5 68.5t-55 32t-35.5 14.5t-14 22v7h465v-9q0 -8 -7 -13t-15.5 -7.5t-24.5 -6t-27 -6.5q-47 -13 -47 -53q0 -32 39 -86l131 -189l129 162q41 54 41 94q0 60 -76 74q-11 2 -26 4.5t-21.5 4 t-13.5 4t-9.5 7.5t-2.5 13v7h421v-7q0 -13 -12.5 -19t-37 -12.5t-53.5 -18t-69.5 -42.5t-78.5 -78l-175 -215l240 -338q32 -45 66 -73.5t59.5 -38t46.5 -14.5t32 -10t11 -18v-8h-506v10q0 8 7 13t16.5 7t25.5 6t27 7q47 13 47 53q0 32 -39 86l-141 201l-143 -174 q-41 -47 -41 -92q0 -62 75 -76q11 -2 27 -4.5t23.5 -4t16 -4.5t12 -8t3.5 -12v-8h-418z" />
<glyph unicode="y" horiz-adv-x="1052" d="M6 879v14h490v-14q0 -12 -23 -18t-50 -9.5t-50 -22t-23 -51.5q0 -20 15 -63l219 -545h6l180 508q18 50 18 90q0 38 -23 59.5t-50.5 26t-50.5 10.5t-23 17v12h401v-12q0 -10 -16.5 -14t-44 -10t-58 -20t-63.5 -53.5t-55 -101.5l-283 -780q-133 -363 -364 -363 q-58 0 -95.5 27.5t-37.5 73.5q0 42 28.5 67t67.5 25q58 0 97 -38.5t50 -96.5q60 23 120.5 103.5t103.5 203.5l24 71h-24l-308 744q-19 46 -45 75.5t-48.5 40.5t-42 16.5t-31 11t-11.5 16.5z" />
<glyph unicode="z" horiz-adv-x="919" d="M51 0v25l592 837h-119q-100 0 -156.5 -7.5t-104 -34t-76 -73.5t-56.5 -129q-6 -22 -22 -22h-11q41 280 47 326q127 -31 318 -31h373v-27q-114 -166 -328.5 -475.5t-249.5 -359.5h209q61 0 105.5 6.5t80 24.5t59 37.5t47 59.5t39.5 76t40 99q1 2 2.5 5.5t2 5t2 4.5t2.5 4 t2.5 3.5t3 2.5t3.5 1t4 0l12 -2l-63 -385q-49 14 -118.5 20.5t-119 7.5t-141.5 1h-379z" />
<glyph unicode="{" horiz-adv-x="696" d="M102 610v27q28 4 51 11.5t40 15t30 21.5t21.5 24.5t14.5 31t9 33.5t4.5 40.5t1.5 43.5v49v246q0 358 361 330v-23q-52 -2 -90 -17.5t-58 -36.5t-31.5 -52.5t-14.5 -57.5t-3 -61v-266q0 -315 -241 -338v-8q70 -7 118.5 -34t74.5 -72t37 -98t11 -122v-442q0 -41 7.5 -74 t27.5 -64.5t61 -50t101 -20.5v-23q-189 -10 -275 71.5t-86 250.5v397q0 46 -2.5 77t-12 68t-27.5 59.5t-51 40.5t-79 23z" />
<glyph unicode="|" horiz-adv-x="651" d="M307 -289v1813h37v-1813h-37z" />
<glyph unicode="}" horiz-adv-x="696" d="M61 -354q60 2 101 20.5t61 50t27.5 64.5t7.5 74v442q0 69 11 122t37 98t75 72t119 34v8q-242 23 -242 338v266q0 35 -3 61t-14.5 57.5t-31.5 52.5t-58 36.5t-90 17.5v23q361 28 361 -330v-246v-49t1.5 -43.5t4.5 -40.5t9 -33.5t14.5 -31t21.5 -24.5t30 -21.5t40 -15 t51 -11.5v-27q-46 -5 -79 -23t-51 -40.5t-27.5 -59.5t-12 -68t-2.5 -77v-397q0 -169 -86 -250.5t-275 -71.5v23z" />
<glyph unicode="~" d="M80 428q5 36 21 74t45.5 80t82.5 69t121 27q66 0 212 -41t200 -41q73 0 122 27t89 96l20 -4q-9 -48 -29 -90.5t-53 -80t-84.5 -59.5t-115.5 -22q-81 0 -210.5 38t-178.5 38q-159 0 -220 -117z" />
<glyph unicode="&#xa2;" d="M139 608q0 216 135.5 350t362.5 134l25 200h30l-24 -202q70 -6 121 -27.5t76 -51t35.5 -57.5t10.5 -55q0 -41 -24 -70.5t-62 -29.5q-47 0 -69.5 30t-22.5 76q0 70 41 127q-56 22 -110 25l-101 -860q192 -18 348 82l15 -21q-145 -106 -367 -106l-24 -207h-31l24 211 q-183 19 -286 138t-103 314zM326 604q0 -340 209 -399l98 854q-137 -2 -222 -118t-85 -337z" />
<glyph unicode="&#xa3;" d="M72 664v32h186q-49 123 -49 226q0 109 39.5 196.5t104.5 140.5t144.5 81t164.5 28q111 0 193.5 -50t82.5 -134q0 -48 -26 -75.5t-64 -27.5q-55 0 -82 35t-27 90q0 57 29 117q-41 12 -106 12q-127 0 -204 -90t-77 -223q0 -138 82 -326h397v-32h-383q41 -103 41 -201 q0 -86 -46.5 -169.5t-141.5 -135.5l2 -6h330q55 0 86 1.5t63.5 11t50 22.5t40.5 43.5t40.5 66.5t44.5 98q13 26 29 21l8 -2l-88 -414h-821v33q233 130 233 313q0 112 -80 318h-196z" />
<glyph unicode="&#xa5;" d="M-57 1341v9h495v-9q0 -16 -31 -21.5t-61.5 -10t-44 -34t20.5 -91.5l276 -525l254 533q30 59 17.5 86t-39.5 30.5t-54.5 9t-27.5 21.5v11h346v-11q0 -11 -14.5 -15t-38.5 -8t-51.5 -13.5t-58.5 -39t-54 -77.5l-265 -551h416v-29h-981v29h363l-301 579q-19 36 -43 59 t-45 31t-39 12t-28.5 9t-10.5 16zM47 440v31h981v-31h-418v-270q0 -43 15 -72t37 -40.5t48.5 -18.5t48.5 -8.5t37 -6.5t15 -16v-8h-584v8q0 13 20.5 17.5t49.5 8t57.5 12.5t49 40.5t20.5 83.5v270h-377z" />
<glyph unicode="&#xa8;" horiz-adv-x="958" d="M199 1200q0 38 28 66t66 28t66 -28t28 -66t-28 -66t-66 -28t-66 28t-28 66zM555 1200q0 39 27.5 66.5t66.5 27.5q38 0 66 -28t28 -66t-28 -66t-66 -28q-39 0 -66.5 27.5t-27.5 66.5z" />
<glyph unicode="&#xa9;" horiz-adv-x="1691" d="M98 719q0 151 57 286.5t156 234t239 156.5t298 58q159 0 299 -58t239 -156.5t156 -234t57 -286.5q0 -203 -97 -371t-269.5 -266t-384.5 -98q-169 0 -311 57.5t-237.5 156.5t-148.5 233.5t-53 287.5zM135 719q0 -145 50.5 -273.5t141 -223t225.5 -149.5t296 -55 q151 0 284.5 55t227.5 149t148.5 223.5t54.5 273.5t-54.5 273.5t-148.5 223.5t-227.5 149.5t-284.5 55.5t-284 -55.5t-227 -149.5t-148 -223.5t-54 -273.5zM369 700q0 138 57 251.5t168.5 182t257.5 68.5q149 0 268 -76l41 76h17v-303h-13q-13 0 -22 20t-14.5 50t-23 65 t-44 65t-81.5 50t-132 20q-90 0 -155.5 -38t-101.5 -106.5t-52.5 -149.5t-16.5 -179q0 -95 19 -173.5t57.5 -140t103 -96t150.5 -34.5q79 0 138 23.5t89 59t51 77t29 77t18 59t23 23.5h12v-346h-18l-49 84q-153 -90 -299 -90q-218 0 -347.5 135t-129.5 346z" />
<glyph unicode="&#xab;" horiz-adv-x="919" d="M102 420q0 26 52 78l356 338l16 -15l-260 -397l252 -397l-18 -15l-344 332q-30 28 -42 44t-12 32zM397 420q0 26 52 78l356 338l16 -15l-260 -397l252 -397l-18 -15l-344 332q-30 28 -42 44t-12 32z" />
<glyph unicode="&#xad;" horiz-adv-x="608" d="M61 492v34h486v-34h-486z" />
<glyph unicode="&#xae;" horiz-adv-x="1155" d="M84 913q0 206 141.5 348t354.5 142q142 0 256.5 -65.5t178.5 -177.5t64 -247q0 -203 -142.5 -344t-356.5 -141q-223 0 -359.5 139.5t-136.5 345.5zM109 913q0 -95 33 -179t93 -146.5t149 -98.5t196 -36q203 0 339 134t136 326q0 195 -135.5 330t-339.5 135 q-202 0 -336.5 -135t-134.5 -330zM332 649v6q0 8 14 11.5t30 5.5t30 16t14 41v410q0 27 -14 41.5t-30 16t-30 5.5t-14 12v7h233q113 0 172.5 -40t59.5 -110q0 -62 -60.5 -104.5t-177.5 -42.5h-31q44 -35 113 -29l147 -184q19 -24 47 -34t45 -12.5t17 -9.5v-6h-166l-223 275 h-4v-195q0 -26 14 -40t31 -16.5t31 -6t14 -11.5v-6h-262zM504 940h31q78 0 124 36t46 95q0 64 -50 98.5t-116 34.5h-35v-264z" />
<glyph unicode="&#xb4;" horiz-adv-x="958" d="M340 1061q62 42 109.5 91t72 87t43.5 70t37.5 49.5t42.5 17.5q32 0 49 -21t17 -48q0 -51 -100 -133t-261 -130z" />
<glyph unicode="&#xb8;" horiz-adv-x="897" d="M344 -469q125 0 193.5 48.5t68.5 101.5q0 52 -56 86.5t-151 35.5l66 197l24 -6l-40 -133q147 10 223 -40t76 -128q0 -79 -82.5 -135t-237.5 -56q-55 0 -84 4v25z" />
<glyph unicode="&#xbb;" horiz-adv-x="919" d="M102 821l17 15l356 -338q51 -51 51 -78q0 -16 -12 -32.5t-41 -43.5l-344 -332l-18 15l251 397zM397 821l17 15l356 -338q51 -51 51 -78q0 -16 -12 -32.5t-41 -43.5l-344 -332l-18 15l251 397z" />
<glyph unicode="&#x2c6;" horiz-adv-x="958" d="M160 1047l225 262q45 53 80 53q37 0 82 -53l223 -265l-14 -14l-291 205l-291 -205z" />
<glyph unicode="&#x2da;" horiz-adv-x="958" d="M279 1208q0 80 57.5 137.5t140.5 57.5q80 0 136.5 -57t56.5 -138q0 -78 -56.5 -133t-136.5 -55q-83 0 -140.5 55.5t-57.5 132.5zM330 1208q0 -59 42.5 -102t104.5 -43q58 0 99.5 43t41.5 102q0 58 -42 105t-99 47q-62 0 -104.5 -45.5t-42.5 -106.5z" />
<glyph unicode="&#x2dc;" horiz-adv-x="958" d="M168 1104q8 31 21 60t33.5 58.5t52 47.5t69.5 18q40 0 146 -40t155 -40q71 0 121 78l14 -4q-14 -75 -60.5 -124.5t-115.5 -49.5q-45 0 -149 37t-144 37q-76 0 -127 -84z" />
<glyph unicode="&#x401;" horiz-adv-x="1382" d="M72 0v12q0 10 12.5 14.5t32.5 7.5t43.5 7.5t47.5 17t44 32t32.5 57t12.5 88.5v933q0 61 -23 98.5t-56.5 51t-66.5 19t-56 10.5t-23 18v14h716q231 0 383 56l56 -453h-13q-12 0 -22 15t-21 46t-12 33q-64 157 -145.5 214t-247.5 57h-277v-609h201q55 0 97 14.5t65 38 t39 52t23 56.5t11.5 51.5t10 38t14.5 14.5h11v-574h-11q-11 0 -17 15.5t-10 40t-9.5 54t-19.5 59.5t-36 54.5t-62.5 40t-95.5 15.5h-211v-504q0 -174 187 -174h119q190 0 307 99t207 329q11 28 30 28h11l-117 -524q-181 37 -379 37h-782zM379 1604q0 38 28 66t66 28t66 -28 t28 -66t-28 -66.5t-66 -28.5t-66 28.5t-28 66.5zM735 1604q0 39 27.5 66.5t66.5 27.5q38 0 66.5 -28t28.5 -66t-28.5 -66.5t-66.5 -28.5q-39 0 -66.5 28t-27.5 67z" />
<glyph unicode="&#x402;" horiz-adv-x="1665" d="M8 963l51 458q111 -23 230 -32t332 -9q174 0 258 1.5t190 12t178 31.5l51 -462q-2 0 -6 -1t-6 -1q-15 0 -24 24l-23 66q-31 91 -63 145.5t-81.5 90t-115.5 48.5t-168 13h-96l2 -588q135 49 305 49q83 0 160.5 -16t149 -52t124.5 -89t85 -133t32 -179q0 -85 -30.5 -164.5 t-87 -143.5t-147 -102.5t-200.5 -38.5q-84 0 -140.5 32.5t-56.5 105.5q0 38 24.5 65t65.5 27q57 0 87 -40t30 -101q0 -54 -2 -64q82 0 138.5 60t80 147.5t23.5 191.5q0 216 -105.5 337.5t-273.5 121.5q-136 0 -264 -39v-512q0 -54 12 -91.5t30.5 -54.5t39.5 -27.5t39.5 -13 t30.5 -9t12 -17.5v-10h-578v10q0 13 23 19t55.5 13t64.5 22t55 55.5t23 103.5v1125h-26q-76 0 -131.5 -7.5t-100 -27t-75 -44.5t-57.5 -69.5t-46.5 -93t-42.5 -121.5q-9 -24 -23 -24q-11 0 -12 2z" />
<glyph unicode="&#x403;" horiz-adv-x="1251" d="M76 1366v14h723q247 0 377 56l55 -451q-4 -2 -10 -2q-12 0 -20.5 11.5t-21.5 45.5t-16 41q-71 152 -156 209.5t-243 57.5h-268v-1121q0 -66 23.5 -108t57 -57t67.5 -21.5t57.5 -12t23.5 -18.5v-10h-643v10q0 12 16.5 18.5t41 8.5t53 14t53 32.5t41 67t16.5 113.5v905 q0 61 -23.5 98.5t-56.5 51t-66.5 19t-57 10.5t-23.5 18zM477 1522q66 28 120 65t85 68.5t55.5 59t45 43.5t40.5 16q32 0 49 -19.5t17 -44.5q0 -21 -24.5 -50.5t-71 -61t-128.5 -58.5t-182 -37z" />
<glyph unicode="&#x404;" horiz-adv-x="1386" d="M92 666q0 149 47.5 281.5t134.5 232.5t219 158.5t291 58.5q174 0 387 -64l68 97h18l19 -488h-12q-11 0 -21.5 23.5t-24 61t-33 82.5t-53 90t-78 82.5t-114.5 61t-156 23.5q-99 0 -179.5 -38t-134 -101.5t-90.5 -151.5t-54 -184t-19 -203q45 40 104.5 67t114.5 27t157 -17 t153 -17q53 0 88 53l14 -8q-34 -73 -96 -111.5t-135 -38.5q-53 0 -155.5 31t-148.5 31q-45 0 -96 -41q0 -137 29.5 -254.5t87 -208t150.5 -142t212 -51.5q109 0 190 26t135.5 78t89 115t61.5 152q7 21 13.5 47t10.5 41t9 29.5t11.5 21t14.5 6.5h10q-8 -185 -20 -561h-21 l-69 98q-239 -81 -443 -81q-162 0 -293 51.5t-216.5 143t-131 217t-45.5 274.5z" />
<glyph unicode="&#x405;" horiz-adv-x="1148" d="M70 225q0 52 32 82.5t72 30.5q68 0 105.5 -45.5t37.5 -114.5q0 -62 -30 -123q105 -51 237 -51q159 0 270 88.5t111 224.5q0 58 -27 106.5t-72 84.5t-103.5 67.5t-123.5 59.5l-130 56t-123.5 62t-103.5 73t-72 92.5t-27 117.5q0 113 63.5 196.5t167.5 125t234 41.5 q105 0 197 -27.5t152 -83t60 -127.5q0 -51 -28 -79.5t-68 -28.5q-65 0 -100 44.5t-35 112.5q0 66 29 125q-95 35 -207 35q-111 0 -196 -71.5t-85 -194.5q0 -53 33 -97.5t87 -76t123 -64.5t141 -61.5t141 -69t123 -85t87 -111t33 -146.5q0 -104 -47.5 -185.5t-127 -130 t-175 -73t-201.5 -24.5q-193 0 -323.5 68.5t-130.5 176.5z" />
<glyph unicode="&#x406;" horiz-adv-x="813" d="M90 0v10q0 11 16 17.5t40.5 8.5t53 12.5t53 28t40.5 56.5t16 96v953q0 55 -22.5 90.5t-54.5 48t-64.5 18.5t-55 11.5t-22.5 17.5v12h641v-12q0 -12 -23.5 -18t-57.5 -11.5t-67.5 -18.5t-57 -47.5t-23.5 -88.5v-957q0 -56 17 -95t42.5 -55.5t55 -27t55 -13t42.5 -8.5 t17 -18v-10h-641z" />
<glyph unicode="&#x407;" horiz-adv-x="813" d="M90 0v10q0 11 16 17.5t40.5 8.5t53 12.5t53 28t40.5 56.5t16 96v953q0 55 -22.5 90.5t-54.5 48t-64.5 18.5t-55 11.5t-22.5 17.5v12h641v-12q0 -12 -23.5 -18t-57.5 -11.5t-67.5 -18.5t-57 -47.5t-23.5 -88.5v-957q0 -56 17 -95t42.5 -55.5t55 -27t55 -13t42.5 -8.5 t17 -18v-10h-641zM139 1567q0 38 28 66t66 28t66.5 -28t28.5 -66t-28.5 -66t-66.5 -28t-66 28t-28 66zM496 1567q0 39 27.5 66.5t66.5 27.5q38 0 66 -28t28 -66t-28 -66t-66 -28q-39 0 -66.5 27.5t-27.5 66.5z" />
<glyph unicode="&#x408;" horiz-adv-x="751" d="M-152 -305q0 53 33.5 82.5t85.5 29.5t98 -43.5t56 -130.5q39 22 66.5 45.5t46 57t29 66t16 86.5t7 102.5t1.5 128.5v1063q0 55 -23 90.5t-56 48t-66 18.5t-56 11.5t-23 17.5v12h650v-12q0 -12 -24 -18t-58.5 -11.5t-69 -18.5t-58.5 -47.5t-24 -88.5v-996q0 -188 -98 -338 q-76 -118 -177 -197t-210 -79q-53 0 -99.5 31t-46.5 90z" />
<glyph unicode="&#x409;" horiz-adv-x="2088" d="M10 74q0 52 35.5 80t81.5 28q49 0 93.5 -37t68.5 -106q68 48 120.5 149.5t85 239.5t50 293.5t22.5 331.5q0 60 -0.5 85t-6.5 62t-19 62q-17 34 -57.5 52.5t-79 21.5t-68.5 10.5t-31 23.5v10h1149v-10q0 -12 -17 -18.5t-42.5 -9.5t-55 -15t-55 -32t-42.5 -63.5t-17 -105.5 v-352q139 27 241 27q79 0 153 -11.5t148 -41t128 -74t88 -116t34 -161.5q0 -51 -16 -103.5t-55 -106t-95.5 -94.5t-146 -67t-199.5 -26h-692v10q0 13 16 20t40 9.5t52.5 16.5t52.5 36.5t40 74.5t16 126v1053l-418 2q0 -160 -5.5 -298.5t-19.5 -282.5t-37 -259.5 t-59.5 -219.5t-84.5 -174t-115 -110.5t-148 -40.5q-58 0 -95.5 30.5t-37.5 80.5zM1223 223q0 -55 5.5 -88t23 -59t50.5 -36.5t87 -10.5h38q159 0 267 107t108 282q0 89 -31.5 156.5t-87.5 107t-126.5 59t-155.5 19.5q-79 0 -176 -17z" />
<glyph unicode="&#x40a;" horiz-adv-x="2125" d="M74 0v10q0 14 23 19.5t55 13t64.5 26t55.5 72t23 138.5v903q0 55 -22.5 90t-54.5 47.5t-63.5 18.5t-54 11.5t-22.5 18.5v10h624v-10q0 -13 -22.5 -19t-54 -12t-63.5 -18.5t-54.5 -46.5t-22.5 -88v-434h576v432q0 55 -21.5 90t-52.5 47.5t-62.5 18.5t-53 11.5t-21.5 18.5 v10h633v-10q0 -13 -23.5 -19t-57.5 -11.5t-68 -18t-57.5 -47t-23.5 -88.5v-418q32 6 113.5 11t126.5 5q76 0 146.5 -10t145 -37t129 -69t89.5 -113t35 -162q0 -51 -16 -102.5t-54.5 -104t-95 -93t-145.5 -66t-197 -25.5h-678v12q0 11 15.5 16.5t38.5 7.5t50.5 13t50.5 29 t38.5 59.5t15.5 100.5v479h-576v-490q0 -66 22.5 -108t54.5 -57t63.5 -21.5t54 -12t22.5 -18.5v-10h-628zM1253 236q0 -106 37 -155.5t140 -49.5h24q162 0 267.5 102.5t105.5 272.5q0 90 -33.5 157.5t-91.5 106t-127 57t-150 18.5q-102 0 -172 -12v-497z" />
<glyph unicode="&#x40b;" horiz-adv-x="1781" d="M31 963l51 458q111 -23 229.5 -32t331.5 -9q174 0 258.5 1.5t190.5 12t178 31.5l51 -462q-2 0 -6 -1t-6 -1q-16 0 -25 24l-22 66q-31 91 -63 145.5t-81.5 90t-115.5 48.5t-168 13h-97l-2 -605q160 72 342 72q436 0 436 -409v-179q0 -66 23.5 -108t57.5 -57t68 -21.5 t57.5 -12t23.5 -18.5v-10h-631v10q0 11 15.5 17.5t38.5 9t50.5 13t50.5 28t38.5 56.5t15.5 95v199q0 179 -86.5 258.5t-230.5 79.5q-120 0 -269 -49v-494q0 -64 23.5 -104.5t56.5 -55.5t66 -21.5t56.5 -12.5t23.5 -19v-10h-644v10q0 13 23.5 19.5t57 13.5t67 22t57 55 t23.5 103v1125h-27q-91 0 -154.5 -12.5t-108.5 -36t-79 -70t-58 -101t-52 -143.5q-9 -24 -23 -24q-11 0 -12 2z" />
<glyph unicode="&#x40c;" horiz-adv-x="1460" d="M74 0v10q0 12 16.5 18t41 8t53 14.5t53 33t41 68t16.5 116.5v914q0 55 -23 90t-55.5 47.5t-64.5 18.5t-55 11.5t-23 18.5v10h643v-10q0 -13 -23.5 -19t-57.5 -12t-68 -18.5t-57.5 -46.5t-23.5 -88v-434h84q51 0 95 11.5t78 30t64.5 51t53 66t45 83t39 93.5t37.5 107 q16 48 30.5 81t39.5 67t62.5 51.5t86.5 17.5q64 0 102.5 -35.5t38.5 -81.5q0 -45 -34 -74.5t-88 -29.5q-49 0 -92 31t-54 92q-19 -23 -41 -82t-46 -126t-56 -137t-84 -129.5t-117 -88.5v-11q94 0 155.5 -15t109 -56t80 -99.5t69.5 -158.5q80 -211 132.5 -297t117.5 -86 q20 0 65 10q0 -5 3.5 -16t4.5 -15q-82 -31 -172 -31q-54 0 -96.5 13t-71 32.5t-53.5 54.5t-40 66t-34 80q-20 49 -44.5 115t-38.5 102.5t-34 83.5t-36.5 71.5t-41 52.5t-51.5 41t-64 21.5t-83 8.5h-121v-488q0 -66 23 -108t55.5 -57t65 -21.5t55.5 -12t23 -18.5v-10h-635z M569 1522q66 28 120 65t85 68.5t55.5 59t45 43.5t40.5 16q32 0 49 -19.5t17 -44.5q0 -21 -24.5 -50.5t-71 -61t-128.5 -58.5t-182 -37z" />
<glyph unicode="&#x40e;" horiz-adv-x="1343" d="M-8 1366v12h581v-14q0 -10 -27 -17t-59 -13t-59 -27t-27 -54q0 -25 15 -55l342 -678h4l293 654q14 29 14 63q0 41 -28 65t-61 29.5t-61 13.5t-28 21v12h459v-12q0 -11 -17 -16t-46.5 -12.5t-62.5 -22.5t-71 -56t-66 -104l-403 -881q-85 -185 -152.5 -259t-164.5 -74 q-56 0 -97 30t-41 78q0 46 29.5 74.5t75.5 28.5q57 0 93 -42t46 -102q82 57 182 289l-448 895q-25 49 -56.5 82t-58.5 45t-50 18.5t-36.5 12t-13.5 16.5zM508 1649q0 42 28.5 71t67.5 29q44 0 67 -32.5t23 -74.5q0 -59 -30 -86q96 -17 210 31.5t189 138.5l14 -14 q-48 -59 -107.5 -101.5t-115.5 -63t-101 -29.5t-81 -9q-81 0 -122.5 41t-41.5 99z" />
<glyph unicode="&#x40f;" horiz-adv-x="1665" d="M76 0v10q0 12 16 18.5t40.5 9t53 16.5t53 36.5t40.5 73.5t16 123v837q0 53 -12 92.5t-31.5 60.5t-42.5 35t-46.5 20t-43 10t-31.5 10t-12 16v10h616v-10q0 -13 -15.5 -19.5t-38.5 -9t-49.5 -14t-49.5 -30.5t-38.5 -62.5t-15.5 -106.5v-1095h691v1095q0 62 -17 105.5 t-42.5 62.5t-55.5 31t-55.5 14.5t-42.5 9.5t-17 19v10h641v-10q0 -14 -22.5 -20.5t-54.5 -15t-64.5 -26t-55 -64t-22.5 -118.5v-860q0 -78 22.5 -127.5t55 -67.5t64.5 -26t54.5 -14t22.5 -19v-10h-696q-45 -14 -45 -68q0 -24 29.5 -115t29.5 -147q0 -87 -61.5 -126.5 t-153.5 -39.5q-76 0 -137 23l8 33q165 -21 180 110q4 29 6.5 78.5t5.5 83.5t11 72t26 62t46 34h-760z" />
<glyph unicode="&#x410;" horiz-adv-x="1468" d="M12 0v10q0 12 18 17.5t47.5 13.5t62.5 23.5t68 56.5t58 104l363 946q29 71 7.5 108.5t-58 47.5t-72 19t-35.5 24v10h326l452 -1198q24 -62 60.5 -97t66 -41t51 -13.5t21.5 -22.5v-8h-530v12q0 12 23.5 19t51 11.5t51 27t23.5 61.5q0 28 -10 53l-101 265h-563l-63 -175 q-31 -91 -31 -118q0 -49 29 -76.5t64 -33.5t64 -14t29 -22v-10h-473zM408 481h532l-264 713h-6z" />
<glyph unicode="&#x411;" horiz-adv-x="1378" d="M61 1366v14h705q247 0 377 56l55 -451q-4 -2 -10 -2q-8 0 -14.5 5t-12.5 16t-10.5 21t-11.5 27t-11 27q-47 103 -97.5 160t-121 83t-178.5 26h-250v-574q143 27 254 27q79 0 153 -11.5t148 -41t128 -74t88 -116t34 -161.5q0 -51 -16 -103.5t-55 -106t-95.5 -94.5 t-146 -67t-199.5 -26h-706v10q0 12 16.5 18.5t41 8.5t53 14t53 32.5t41 67t16.5 113.5v905q0 61 -23.5 98.5t-57 51t-67 19t-57 10.5t-23.5 18zM481 225q0 -56 5 -88t21.5 -58.5t49 -37t86.5 -10.5h53q159 0 267 106t108 281q0 89 -31.5 156.5t-87.5 107t-126.5 59 t-155.5 19.5q-89 0 -189 -17v-518z" />
<glyph unicode="&#x412;" horiz-adv-x="1378" d="M74 0v12q0 12 23 17t55 11.5t64.5 22.5t55.5 60.5t23 114.5v931q0 61 -23 98.5t-55.5 51t-64.5 19t-55 10.5t-23 18v14h682q101 0 181.5 -19t131.5 -50t85.5 -73t48.5 -86t14 -91q0 -87 -57 -154.5t-146 -104t-195 -42.5q115 -8 206.5 -43.5t147.5 -88t85.5 -114.5 t29.5 -129q0 -55 -15.5 -107t-53.5 -103.5t-95.5 -89.5t-148.5 -61.5t-205 -23.5h-696zM487 248q0 -110 38.5 -163.5t150.5 -53.5h35q162 0 263 91.5t101 262.5q0 76 -24.5 138t-63.5 101t-89 66t-99 38t-97 11h-215v-491zM487 770h195q44 0 85.5 7t86.5 28.5t78 55 t54.5 90.5t21.5 132q0 36 -10.5 71.5t-35 71t-61 62.5t-94 43.5t-127.5 16.5h-193v-578z" />
<glyph unicode="&#x413;" horiz-adv-x="1251" d="M76 1366v14h723q247 0 377 56l55 -451q-4 -2 -10 -2q-12 0 -20.5 11.5t-21.5 45.5t-16 41q-71 152 -156 209.5t-243 57.5h-268v-1121q0 -66 23.5 -108t57 -57t67.5 -21.5t57.5 -12t23.5 -18.5v-10h-643v10q0 12 16.5 18.5t41 8.5t53 14t53 32.5t41 67t16.5 113.5v905 q0 61 -23.5 98.5t-56.5 51t-66.5 19t-57 10.5t-23.5 18z" />
<glyph unicode="&#x414;" horiz-adv-x="1497" d="M23 39l6 4q89 -12 170 -12q164 167 235 479q62 266 82 686q2 51 -23.5 82.5t-63.5 42.5t-76.5 16.5t-65.5 12t-27 20.5v10h1221v-10q0 -14 -23.5 -20.5t-57 -12t-67 -17.5t-57 -46.5t-23.5 -89.5v-1151q149 0 222 12l6 -2l-37 -426h-12q-16 0 -21 27l-49 231 q-9 43 -22 68.5t-36.5 38t-47 15.5t-68.5 3h-887q-89 0 -119.5 -25t-44.5 -98l-45 -233q-3 -16 -7.5 -21.5t-12.5 -5.5h-13zM242 31l817 -2v1319h-504q-1 -232 -26 -464t-66 -407q-28 -123 -90 -252t-131 -194z" />
<glyph unicode="&#x415;" horiz-adv-x="1382" d="M72 0v12q0 10 12.5 14.5t32.5 7.5t43.5 7.5t47.5 17t44 32t32.5 57t12.5 88.5v933q0 61 -23 98.5t-56.5 51t-66.5 19t-56 10.5t-23 18v14h716q231 0 383 56l56 -453h-13q-12 0 -22 15t-21 46t-12 33q-64 157 -145.5 214t-247.5 57h-277v-609h201q55 0 97 14.5t65 38 t39 52t23 56.5t11.5 51.5t10 38t14.5 14.5h11v-574h-11q-11 0 -17 15.5t-10 40t-9.5 54t-19.5 59.5t-36 54.5t-62.5 40t-95.5 15.5h-211v-504q0 -174 187 -174h119q190 0 307 99t207 329q11 28 30 28h11l-117 -524q-181 37 -379 37h-782z" />
<glyph unicode="&#x416;" horiz-adv-x="2084" d="M-6 4q0 4 1.5 10t3.5 12l3 9q31 -8 55 -8q27 0 49.5 7.5t44 28.5t39 46t40 72t42 93t50.5 123q53 135 102.5 204t120 100.5t184.5 31.5v10q-65 29 -117 90t-84 132t-56 139t-46 126.5t-41 80.5q-11 -61 -52 -91t-93 -30q-56 0 -90.5 30t-34.5 74q0 45 39 80t104 35 q135 0 191 -137q15 -39 40 -105t38 -101t37 -87.5t44 -80.5t51.5 -62t65.5 -50.5t81 -28.5t103 -12h37v437q0 46 -16 78t-40.5 46t-53 23.5t-53 12t-40.5 9t-16 17.5v10h641v-10q0 -13 -23.5 -18.5t-57 -11.5t-67.5 -18.5t-57.5 -47.5t-23.5 -90v-437h61q72 0 131 26.5 t96 59.5t74 103.5t55.5 117t51.5 140.5q16 45 24.5 66t28 56t39 51.5t52 30t73.5 13.5q64 0 102.5 -35t38.5 -80t-34.5 -74.5t-88.5 -29.5q-47 0 -89.5 30.5t-53.5 90.5q-18 -21 -40 -80t-46 -127t-56 -139t-84.5 -132t-117.5 -90v-10q171 0 255 -66t156 -255 q84 -221 134 -304t118 -83q10 0 64 12q0 -4 4.5 -16.5t5.5 -16.5q-82 -31 -172 -31q-66 0 -115 17.5t-83 55t-54.5 75t-44.5 98.5q-20 50 -44 115.5t-38 102.5t-33.5 83t-35.5 70.5t-40 51.5t-51.5 39.5t-64.5 21t-84 8.5h-94v-484q0 -66 23.5 -108t57.5 -57t67.5 -21.5 t57 -12t23.5 -18.5v-10h-635v10q0 11 16 17.5t39.5 9t51 13t51 28t39.5 56.5t16 95v482h-96q-64 0 -110 -15t-81 -50.5t-59.5 -79.5t-54.5 -117q-15 -38 -34 -91t-31.5 -88.5t-31 -79.5t-35.5 -72.5t-42 -58.5t-53.5 -47t-67.5 -28t-86 -11q-91 0 -170 31z" />
<glyph unicode="&#x417;" horiz-adv-x="1224" d="M43 518h10q8 0 14.5 -6t11.5 -19.5t9 -27.5t11 -40t14 -46q23 -74 44.5 -124.5t57 -101.5t80.5 -80.5t112.5 -48t155.5 -18.5q96 0 169.5 29.5t115 79.5t62 109t20.5 124q0 96 -33 169t-94.5 118t-144 67.5t-185.5 22.5q-28 0 -82 -4l-6 33q108 9 195 32.5t156.5 63 t108 102.5t38.5 144q0 68 -27.5 121.5t-74 85.5t-104 48.5t-122.5 16.5q-92 0 -184.5 -28.5t-163.5 -86.5q33 -21 51 -56.5t18 -72.5q0 -48 -29.5 -82t-78.5 -34q-42 0 -66 30t-24 70q0 69 63.5 136t178.5 112t247 45q106 0 193 -16.5t142.5 -44t96 -60.5t61 -70.5t29.5 -68 t9 -58.5q0 -41 -14.5 -81.5t-51 -82.5t-91.5 -75t-142.5 -57t-196.5 -31q0 -1 -1 -4t-1 -4q277 -21 413 -116.5t136 -252.5q0 -77 -33.5 -146.5t-100.5 -128t-182.5 -93t-265.5 -34.5q-127 0 -216.5 21t-196.5 63l-70 -98h-21q-11 351 -20 555z" />
<glyph unicode="&#x418;" horiz-adv-x="1652" d="M76 0v10q0 13 16 19t40.5 8t53 14.5t53 33.5t40.5 70t16 119v908q0 55 -22.5 90t-54.5 47.5t-64.5 18.5t-55 11.5t-22.5 18.5v10h639v-10q0 -13 -23.5 -19t-57.5 -12t-68 -18.5t-57.5 -46.5t-23.5 -88v-877l670 842v33q0 46 -16 78t-40.5 46.5t-53 24t-53 12t-40.5 8.5 t-16 17v10h641v-10q0 -13 -23.5 -18.5t-57.5 -11t-67.5 -18t-57 -47t-23.5 -89.5v-912q0 -71 17 -119.5t42.5 -68.5t55 -32t55 -13.5t42.5 -8t17 -20.5v-10h-641v10q0 11 16 17.5t40.5 9t53 13.5t53 28.5t40.5 56t16 94.5v871q-252 -315 -670 -842v-31q0 -66 23.5 -108 t57.5 -57t68 -21.5t57.5 -12t23.5 -18.5v-10h-639z" />
<glyph unicode="&#x419;" horiz-adv-x="1652" d="M76 0v10q0 13 16 19t40.5 8t53 14.5t53 33.5t40.5 70t16 119v908q0 55 -22.5 90t-54.5 47.5t-64.5 18.5t-55 11.5t-22.5 18.5v10h639v-10q0 -13 -23.5 -19t-57.5 -12t-68 -18.5t-57.5 -46.5t-23.5 -88v-877l670 842v33q0 46 -16 78t-40.5 46.5t-53 24t-53 12t-40.5 8.5 t-16 17v10h641v-10q0 -13 -23.5 -18.5t-57.5 -11t-67.5 -18t-57 -47t-23.5 -89.5v-912q0 -71 17 -119.5t42.5 -68.5t55 -32t55 -13.5t42.5 -8t17 -20.5v-10h-641v10q0 11 16 17.5t40.5 9t53 13.5t53 28.5t40.5 56t16 94.5v871q-252 -315 -670 -842v-31q0 -66 23.5 -108 t57.5 -57t68 -21.5t57.5 -12t23.5 -18.5v-10h-639zM606 1649q0 42 28.5 71t67.5 29q44 0 67.5 -32.5t23.5 -74.5q0 -58 -31 -86q96 -17 210 31.5t189 138.5l15 -14q-48 -59 -107.5 -101.5t-116 -63t-101.5 -29.5t-81 -9q-81 0 -122.5 41t-41.5 99z" />
<glyph unicode="&#x41a;" horiz-adv-x="1460" d="M74 0v10q0 12 16.5 18t41 8t53 14.5t53 33t41 68t16.5 116.5v914q0 55 -23 90t-55.5 47.5t-64.5 18.5t-55 11.5t-23 18.5v10h643v-10q0 -13 -23.5 -19t-57.5 -12t-68 -18.5t-57.5 -46.5t-23.5 -88v-434h84q51 0 95 11.5t78 30t64.5 51t53 66t45 83t39 93.5t37.5 107 q16 48 30.5 81t39.5 67t62.5 51.5t86.5 17.5q64 0 102.5 -35.5t38.5 -81.5q0 -45 -34 -74.5t-88 -29.5q-49 0 -92 31t-54 92q-19 -23 -41 -82t-46 -126t-56 -137t-84 -129.5t-117 -88.5v-11q94 0 155.5 -15t109 -56t80 -99.5t69.5 -158.5q80 -211 132.5 -297t117.5 -86 q20 0 65 10q0 -5 3.5 -16t4.5 -15q-82 -31 -172 -31q-54 0 -96.5 13t-71 32.5t-53.5 54.5t-40 66t-34 80q-20 49 -44.5 115t-38.5 102.5t-34 83.5t-36.5 71.5t-41 52.5t-51.5 41t-64 21.5t-83 8.5h-121v-488q0 -66 23 -108t55.5 -57t65 -21.5t55.5 -12t23 -18.5v-10h-635z " />
<glyph unicode="&#x41b;" horiz-adv-x="1554" d="M14 74q0 52 35.5 80t81.5 28q49 0 93.5 -37t68.5 -106q68 48 120.5 149.5t85 239.5t50 293.5t22.5 331.5q0 60 -0.5 85t-6.5 62t-19 62q-17 34 -57.5 52.5t-79 21.5t-68.5 10.5t-31 23.5v10h1186v-10q0 -12 -17 -18.5t-42.5 -9.5t-55 -15t-55 -32t-42.5 -63.5t-17 -105.5 v-841q0 -64 12.5 -110.5t33 -70.5t44.5 -39t48.5 -20t45 -8t33 -9t12.5 -18v-10h-641v10q0 13 16 20t40 9.5t52.5 16.5t52.5 36.5t40 74.5t16 126v1055h-455q0 -160 -5.5 -298.5t-19.5 -282.5t-37 -259.5t-59.5 -219.5t-84.5 -174t-115 -110.5t-148 -40.5q-58 0 -95.5 30.5 t-37.5 80.5z" />
<glyph unicode="&#x41c;" horiz-adv-x="1916" d="M68 0v10q0 12 16.5 19t41.5 10.5t54.5 19t55 40t43.5 79t20 131.5l20 860q1 56 -21 92.5t-54 50t-64.5 20.5t-55 13.5t-22.5 18.5v16h379l502 -905l442 905h400v-16q0 -12 -23.5 -18.5t-57.5 -14t-67 -21.5t-56 -50.5t-22 -92.5l21 -948q1 -62 25 -101.5t57 -54.5 t66.5 -22t56.5 -13t24 -18v-10h-632v10q0 13 22.5 20t54.5 14.5t64 22t53.5 53t20.5 97.5l-21 1053h-4l-406 -828l140 -254l-21 -12q-50 54 -102.5 75t-132.5 23q-65 128 -253 454t-274 505h-4l-18 -924q-3 -88 22 -164q15 -46 51 -71t71 -29.5t62 -12t27 -22.5v-10h-501z " />
<glyph unicode="&#x41d;" horiz-adv-x="1681" d="M74 0v10q0 14 23 19.5t55 12.5t64.5 25.5t55.5 71t23 135.5v908q0 55 -23 90t-55.5 47.5t-64.5 18.5t-55 11.5t-23 18.5v10h641v-10q0 -13 -23.5 -19t-57.5 -12t-68 -18.5t-57.5 -46.5t-23.5 -88v-441h703v439q0 54 -22.5 89t-55 48t-64.5 19t-54.5 12t-22.5 18v10h639 v-10q0 -13 -23.5 -18.5t-57.5 -11t-68 -18t-57.5 -47t-23.5 -89.5v-912q0 -71 17 -119.5t42.5 -68.5t55.5 -32t55.5 -13.5t42.5 -8t17 -20.5v-10h-641v10q0 11 16.5 17.5t41 9t53 13.5t53 28.5t41 56t16.5 94.5v482h-703v-484q0 -66 23.5 -108t57.5 -57t68 -21.5t57.5 -12 t23.5 -18.5v-10h-641z" />
<glyph unicode="&#x41e;" horiz-adv-x="1568" d="M92 686q0 146 50 276.5t139 227t218.5 153t280.5 56.5q156 0 288 -56t221 -151.5t138.5 -225t49.5 -274.5q0 -196 -86.5 -358t-247 -258t-363.5 -96q-162 0 -293.5 55t-217 151t-131.5 224t-46 276zM309 692q0 -104 14 -198t48.5 -185.5t87.5 -157.5t137.5 -106.5 t191.5 -40.5q103 0 185 39t134.5 103t88 152.5t50 182.5t14.5 197q0 87 -10 167.5t-31.5 160.5t-59.5 145t-89.5 115t-125.5 78t-164 28q-100 0 -181.5 -40t-134.5 -106t-88.5 -155t-51 -183.5t-15.5 -195.5z" />
<glyph unicode="&#x41f;" horiz-adv-x="1617" d="M76 0v10q0 11 16 17.5t40.5 8.5t53 12.5t53 28t40.5 56.5t16 96v953q0 55 -22.5 90.5t-54.5 48t-64.5 18.5t-55 11.5t-22.5 17.5v12h1536v-12q0 -12 -23.5 -17.5t-57.5 -11.5t-68 -18.5t-57.5 -47t-23.5 -89.5v-957q0 -56 17 -94.5t42.5 -55.5t55.5 -27t55.5 -12.5 t42.5 -9t17 -18.5v-10h-641v10q0 11 16 17.5t40.5 9t53 13.5t53 28.5t40.5 56t16 94.5v1119h-705v-1121q0 -56 17 -95t42.5 -55.5t55.5 -27t55.5 -13t42.5 -8.5t17 -18v-10h-639z" />
<glyph unicode="&#x420;" horiz-adv-x="1253" d="M74 1366v14h571q267 0 411 -109t144 -288q0 -85 -29 -154.5t-78 -116t-115.5 -78t-139.5 -45.5t-152 -14q-108 0 -197 15v-363q0 -66 23.5 -108t57.5 -57t68 -21.5t57.5 -12t23.5 -18.5v-10h-643v10q0 11 16 17.5t40.5 9t53 13t53 28t40.5 56.5t16 95v940q0 61 -23 98.5 t-55.5 51t-64.5 19t-55 10.5t-23 18zM489 618q61 -12 160 -12q155 0 246.5 102.5t91.5 268.5q0 93 -32 165.5t-85.5 116.5t-120 66.5t-139.5 22.5h-121v-730z" />
<glyph unicode="&#x421;" horiz-adv-x="1386" d="M92 666q0 149 47.5 281.5t134.5 232.5t219 158.5t291 58.5q174 0 387 -64l68 97h18l19 -488h-12q-11 0 -21.5 23.5t-24 61t-33 82.5t-53 90t-78 82.5t-114.5 61t-156 23.5q-85 0 -156 -27.5t-122.5 -77t-90.5 -115t-62 -145.5t-34.5 -164.5t-11.5 -174.5 q0 -109 18 -205.5t57 -179t94.5 -142.5t134.5 -93.5t175 -33.5q109 0 190 26t135.5 78t89 115t61.5 152q7 21 13.5 47t10.5 41t9 29.5t11.5 21t14.5 6.5h10q-8 -185 -20 -561h-21l-69 98q-239 -81 -443 -81q-162 0 -293 51.5t-216.5 143t-131 217t-45.5 274.5z" />
<glyph unicode="&#x422;" horiz-adv-x="1320" d="M25 963l51 458q110 -23 237.5 -32t343.5 -9q169 0 247 1.5t172 12t167 31.5l51 -462q-2 0 -6 -1t-6 -1q-16 0 -25 24l-22 66q-31 91 -63 145.5t-81.5 90t-115.5 48.5t-168 13h-53q0 -188 -1 -562.5t-1 -562.5q0 -64 24.5 -104.5t59 -55.5t69.5 -21.5t59.5 -12.5t24.5 -19 v-10h-657v10q0 13 23.5 19t56.5 13t66.5 22t57 55.5t23.5 103.5v1125h-47q-76 0 -131.5 -7.5t-100 -27t-75 -44.5t-57.5 -69.5t-46.5 -93t-42.5 -121.5q-9 -24 -22 -24q-11 0 -12 2z" />
<glyph unicode="&#x423;" horiz-adv-x="1343" d="M-8 1366v12h581v-14q0 -10 -27 -17t-59 -13t-59 -27t-27 -54q0 -25 15 -55l342 -678h4l293 654q14 29 14 63q0 41 -28 65t-61 29.5t-61 13.5t-28 21v12h459v-12q0 -11 -17 -16t-46.5 -12.5t-62.5 -22.5t-71 -56t-66 -104l-403 -881q-85 -185 -152.5 -259t-164.5 -74 q-56 0 -97 30t-41 78q0 46 29.5 74.5t75.5 28.5q57 0 93 -42t46 -102q82 57 182 289l-448 895q-25 49 -56.5 82t-58.5 45t-50 18.5t-36.5 12t-13.5 16.5z" />
<glyph unicode="&#x424;" horiz-adv-x="1703" d="M92 700q0 91 44.5 177t125.5 157t205.5 120.5t273.5 62.5q-9 53 -44.5 82.5t-73.5 35t-68.5 12.5t-30.5 21v12h641v-12q0 -14 -32 -21t-72 -12.5t-77 -35t-46 -82.5q307 -20 490.5 -165t183.5 -350q0 -206 -181 -354.5t-491 -165.5q8 -51 34 -82.5t57.5 -43t62 -16.5 t51 -11t20.5 -19v-10h-641v10q0 12 19.5 18t49 11.5t60 17t55 44t31.5 83.5q-169 12 -296.5 57.5t-202.5 116t-111.5 156t-36.5 186.5zM309 707q0 -216 114 -346.5t320 -149.5v977q-131 -9 -230.5 -76t-151.5 -173t-52 -232zM938 211q105 6 193.5 51t145.5 113.5t88.5 152.5 t31.5 170q0 94 -29.5 179t-85 153t-144.5 111.5t-200 50.5v-981z" />
<glyph unicode="&#x425;" horiz-adv-x="1452" d="M16 0v8q0 12 12.5 18t34.5 9t55.5 16.5t71 34.5t86.5 68.5t97 113.5l278 389l-309 467q-50 73 -68 95q-39 49 -82 78t-71 35t-47 13.5t-19 20.5v12h600v-12q0 -13 -25.5 -22t-56 -14.5t-56 -24.5t-25.5 -50q0 -38 71 -145l203 -307l192 278q82 120 82 170 q0 34 -21.5 53.5t-48 25t-48 14.5t-21.5 24v10h481v-10q0 -13 -13 -20.5t-36 -11t-59 -17.5t-75 -36t-90 -70.5t-99 -116.5l-228 -322l338 -510q23 -34 74 -102q40 -52 86.5 -82.5t78 -37t52.5 -13t21 -17.5v-12h-623v10q0 13 26.5 21t57.5 12t57.5 21.5t26.5 48.5 q0 47 -39 106l-270 410l-195 -279q-125 -174 -125 -229q0 -33 26 -53t57 -25.5t57 -14t26 -20.5v-8h-498z" />
<glyph unicode="&#x426;" horiz-adv-x="1642" d="M76 0v10q0 11 12 16.5t31.5 9t43 9t46.5 20.5t42.5 39t31.5 69.5t12 107.5v849q0 60 -16 102t-40.5 61.5t-53 31.5t-53 15t-40.5 10t-16 18v10h639v-10q0 -13 -23.5 -19t-57.5 -12t-68 -18.5t-57.5 -46.5t-23.5 -88v-1153h682v1102q0 58 -16.5 99t-41 59.5t-53 31t-53 16 t-41 10.5t-16.5 19v10h635v-10q0 -13 -23 -19t-55.5 -11.5t-65.5 -17.5t-56 -46.5t-23 -89.5v-1151h35q69 0 119.5 -17.5t76.5 -47t37.5 -60t11.5 -64.5q0 -41 -13.5 -78t-40.5 -68.5t-74 -50t-109 -18.5q-109 0 -277.5 19.5t-255.5 19.5q-77 0 -112 -28.5t-43 -92.5h-33 q0 55 9.5 103.5t31 94t64.5 72.5t104 27q92 0 200 -21.5t201.5 -43t151.5 -21.5q61 0 93 32t32 75q0 57 -42.5 96t-144.5 39h-1304z" />
<glyph unicode="&#x427;" horiz-adv-x="1492" d="M16 1368v12h621v-12q0 -11 -16 -17t-39.5 -8.5t-51 -12t-51 -23.5t-39.5 -46t-16 -77v-189q0 -177 72.5 -249t214.5 -72q59 0 139.5 16t144.5 41v453q0 55 -21.5 89.5t-51.5 47t-60.5 18t-52 11t-21.5 18.5v12h629v-12q0 -12 -24 -18t-57.5 -12t-67.5 -18.5t-58 -47 t-24 -88.5v-916q0 -60 12.5 -103.5t33 -66.5t44.5 -36.5t48.5 -18t45 -7.5t33 -8.5t12.5 -17.5v-10h-643v10q0 11 16.5 17.5t41 9t53 13t53 28t41 56.5t16.5 95q0 79 1 236.5t1 236.5q-165 -71 -340 -71q-69 0 -129 12.5t-115.5 41.5t-94.5 74t-62 114t-23 157v154 q0 55 -22 89.5t-53.5 47t-63.5 18t-54 11t-22 18.5z" />
<glyph unicode="&#x428;" horiz-adv-x="2152" d="M76 1368v10h616v-10q0 -13 -21 -19t-51 -12t-60.5 -18.5t-51.5 -46.5t-21 -88v-1153h486v1151q0 55 -20.5 89.5t-49.5 47.5t-58.5 18.5t-50 11.5t-20.5 19v10h594v-10q0 -13 -21 -19t-51 -12t-59.5 -18.5t-50.5 -46.5t-21 -88v-1153h494v1153q0 52 -21 86t-51.5 46.5 t-60.5 19t-51 13t-21 19.5v10h623v-10q0 -12 -16.5 -19t-42 -10t-54.5 -15.5t-54.5 -32t-42 -62.5t-16.5 -105v-837q0 -72 16.5 -123t40.5 -73.5t53 -36.5t53 -16.5t40.5 -9t16.5 -18.5v-10h-1993v10q0 12 16 18.5t40.5 9t53 16.5t53 36.5t40.5 73.5t16 123v837 q0 73 -23 119.5t-55.5 64t-64.5 26t-55 14.5t-23 20z" />
<glyph unicode="&#x429;" horiz-adv-x="2115" d="M76 1368v10h616v-10q0 -13 -21 -19t-51 -12t-60.5 -18.5t-51.5 -46.5t-21 -88v-1153h486v1151q0 55 -20.5 89.5t-49.5 47.5t-58.5 18.5t-50 11.5t-20.5 19v10h594v-10q0 -13 -21 -19t-51 -12t-59.5 -18.5t-50.5 -46.5t-21 -88v-1153h494v1153q0 52 -21 86t-51.5 46.5 t-60.5 19t-51 13t-21 19.5v10h623v-10q0 -12 -16.5 -19t-42 -10t-54.5 -15.5t-54.5 -32t-42 -62.5t-16.5 -105v-1091h35q69 0 120 -17.5t77 -47t37.5 -60t11.5 -64.5q0 -88 -59 -151.5t-179 -63.5q-109 0 -277 19.5t-255 19.5q-77 0 -112.5 -28.5t-43.5 -92.5h-32 q0 55 9 103t30.5 94t64.5 73t104 27q92 0 200 -21.5t201.5 -43t151.5 -21.5q61 0 93 32t32 75q0 57 -42 96t-144 39h-1796v10q0 12 16 18.5t40.5 9t53 16.5t53 36.5t40.5 73.5t16 123v837q0 73 -23 119.5t-55.5 64t-64.5 26t-55 14.5t-23 20z" />
<glyph unicode="&#x42a;" horiz-adv-x="1613" d="M14 969l49 458l7 3q24 -21 112 -33.5t145 -14.5t97 -2h555v-14q0 -13 -23.5 -18t-56.5 -10.5t-66.5 -19t-57 -51t-23.5 -98.5v-397q125 27 233 27q82 0 157.5 -12t149 -41t127.5 -73.5t87.5 -115.5t33.5 -160q0 -53 -16 -105.5t-55 -106t-96.5 -94t-147.5 -66t-201 -25.5 h-684v12q0 11 16 16.5t40.5 7.5t53 13t53 29t40.5 59.5t16 100.5v1110h-104q-166 0 -254 -80.5t-150 -272.5q-4 -14 -11 -21t-15 -5h-11zM752 236q0 -106 36.5 -155.5t139.5 -49.5h26q160 0 266.5 103.5t106.5 277.5q0 73 -21 131.5t-58 98t-88.5 65.5t-111 37.5 t-128.5 11.5q-61 0 -168 -15v-505z" />
<glyph unicode="&#x42b;" horiz-adv-x="1937" d="M76 1368v10h645v-10q0 -12 -17 -19t-43 -10t-56 -15.5t-56 -32t-43 -61.5t-17 -102v-356q147 27 246 27q78 0 151 -11t147 -39.5t128.5 -72.5t88.5 -116t34 -163q0 -53 -16 -105.5t-54.5 -106t-95.5 -94t-147.5 -66t-202.5 -25.5h-690v12q0 12 16.5 17.5t41 7t53 15 t53 37t41 76t16.5 128.5v831q0 61 -16.5 104t-41.5 63t-53.5 32.5t-53.5 16t-41.5 10.5t-16.5 18zM489 236q0 -106 37.5 -155.5t141.5 -49.5h24q167 0 274 103t107 278q0 91 -32 159t-88.5 108t-128.5 59.5t-158 19.5q-77 0 -177 -17v-505zM1219 0v10q0 13 16 19t40.5 8 t53 14.5t53 33.5t40.5 70t16 119v908q0 55 -22.5 90t-55 47.5t-64.5 18.5t-54.5 11.5t-22.5 18.5v10h641v-10q0 -13 -23.5 -19t-57.5 -12t-68 -18.5t-57.5 -46.5t-23.5 -88v-912q0 -71 17 -119.5t42.5 -69.5t55.5 -32.5t55.5 -13.5t42.5 -8t17 -19v-10h-641z" />
<glyph unicode="&#x42c;" horiz-adv-x="1363" d="M76 1368v10h645v-10q0 -12 -17 -19t-43 -10t-56 -15.5t-56 -32t-43 -61.5t-17 -102v-356q147 27 246 27q78 0 151 -11t147 -39.5t128.5 -72.5t88.5 -116t34 -163q0 -53 -16 -105.5t-54.5 -106t-95.5 -94t-147.5 -66t-202.5 -25.5h-690v12q0 12 16.5 17.5t41 7t53 15 t53 37t41 76t16.5 128.5v831q0 61 -16.5 104t-41.5 63t-53.5 32.5t-53.5 16t-41.5 10.5t-16.5 18zM489 236q0 -106 37.5 -155.5t141.5 -49.5h24q167 0 274 103t107 278q0 91 -31.5 159t-88.5 108t-128 59.5t-157 19.5q-79 0 -179 -17v-505z" />
<glyph unicode="&#x42d;" horiz-adv-x="1400" d="M88 524h10q8 0 14.5 -6.5t11.5 -21t9 -29.5t11 -41t14 -47q28 -90 61.5 -153t86 -115.5t130 -78.5t182.5 -26q118 0 210.5 59t148.5 158.5t84.5 221t28.5 255.5q0 29 -3 56q-73 -103 -190 -103q-51 0 -142 19.5t-134 19.5q-84 0 -127 -65l-21 12q99 152 262 152 q51 0 139 -17.5t117 -17.5q74 0 96 32q-7 129 -35 231t-81.5 181.5t-140.5 122.5t-203 43q-228 0 -375 -121q67 -48 67 -133q0 -45 -29 -76.5t-75 -31.5q-44 0 -68 27.5t-24 66.5q0 53 39.5 107t105.5 97t161 70t198 27q326 0 504 -189t178 -505q0 -150 -46 -281.5 t-131.5 -230.5t-216.5 -156t-290 -57q-87 0 -172 14t-130.5 27.5t-123.5 39.5l-70 -98h-20q-9 279 -21 561z" />
<glyph unicode="&#x42e;" horiz-adv-x="2222" d="M74 0v10q0 11 16 17.5t40.5 8.5t53 12.5t53 28t40.5 56.5t16 96v953q0 55 -22.5 90.5t-54.5 48t-64.5 18.5t-55 11.5t-22.5 17.5v12h641v-12q0 -12 -23.5 -18t-57.5 -11.5t-68 -18.5t-57.5 -47.5t-23.5 -88.5v-449h287q8 135 58.5 255.5t135.5 210.5t208.5 143t267.5 53 q157 0 287.5 -57t215.5 -154t132 -225t47 -271q0 -144 -48.5 -273.5t-135 -227t-216 -155t-282.5 -57.5q-134 0 -245 37.5t-189.5 104t-132.5 158.5t-79.5 199t-25.5 226h-285v-475q0 -56 17 -95t42.5 -55.5t55.5 -27t55.5 -13t42.5 -8.5t17 -18v-10h-641zM985 690 q0 -72 5.5 -138t20.5 -136t37.5 -128.5t59.5 -111.5t84 -90t113 -58.5t145 -21.5q106 0 187.5 39t132 102.5t82.5 152.5t44.5 180.5t12.5 195.5t-12.5 196.5t-45.5 185t-84 158.5t-134.5 107t-190.5 41q-100 0 -180 -40.5t-131 -106.5t-84.5 -155t-47.5 -181t-14 -191z" />
<glyph unicode="&#x42f;" horiz-adv-x="1431" d="M-23 2l7 25q35 -7 53 -7q36 0 71 22t64 55.5t59.5 86t53 99t49.5 108.5q25 57 43 91t44.5 70t56.5 55.5t74 33.5t101 18v9q-189 13 -292 111t-103 229q0 172 133 271t389 99h574v-12q0 -12 -23 -17.5t-55 -11t-64.5 -18t-55.5 -48t-23 -91.5v-912q0 -69 16.5 -116.5 t41 -68t53 -33t53 -14.5t41 -8t16.5 -18v-10h-643v10q0 13 23.5 18.5t57.5 12t67.5 21.5t57 57t23.5 108v428h-111q-46 0 -82 -10t-65 -34t-50 -49.5t-44 -70.5t-39.5 -83t-44.5 -101.5t-51 -111.5q-29 -59 -54 -96.5t-61 -70t-83.5 -47t-111.5 -14.5q-75 0 -166 35z M463 1014q0 -155 113 -241.5t301 -86.5h63v662h-106q-157 0 -264 -88t-107 -246z" />
<glyph unicode="&#x430;" horiz-adv-x="966" d="M61 199q0 71 28 127t73 91t106.5 58t124.5 32t131 9q58 0 111 -6v133q0 246 -191 246q-111 0 -186 -60q29 -19 46.5 -54.5t17.5 -74.5q0 -46 -26.5 -77t-78.5 -31q-39 0 -62.5 27t-23.5 67q0 25 10 54t35.5 61t62 57.5t95.5 42.5t131 17q96 0 165 -26.5t105.5 -73t53 -99 t16.5 -115.5v-444q0 -80 20 -104t99 -25l2 -21q-72 -30 -142 -30q-69 0 -105.5 28.5t-39.5 106.5h-8q-73 -79 -150 -108.5t-174 -29.5q-102 0 -174 58.5t-72 163.5zM242 219q0 -95 38 -144.5t109 -49.5q70 0 138.5 37.5t107.5 95.5v325q-36 4 -76 4q-163 0 -240 -73 t-77 -195z" />
<glyph unicode="&#x431;" d="M72 516q0 156 27.5 279.5t75 202t108.5 136t129.5 90t137.5 55.5t133 39.5t114.5 36t83.5 52.5t39 80q1 0 14.5 -1t15.5 -1q1 -9 2.5 -24.5t2.5 -28.5t1 -25q0 -87 -46 -137t-124.5 -70.5t-163.5 -34t-184 -43.5t-166 -82q-57 -44 -96.5 -124t-55.5 -155.5t-18 -148.5h11 q32 74 89.5 129.5t123 83.5t122.5 41t105 13q89 0 167.5 -29t139.5 -83.5t97 -141t36 -193.5q0 -63 -17.5 -126.5t-54 -123t-88.5 -105t-127 -73t-163 -27.5q-106 0 -189 30.5t-135 81.5t-86 122t-47.5 145.5t-13.5 159.5zM256 430q0 -57 8 -113t28.5 -113.5t51.5 -101 t81 -71t114 -27.5q75 0 131 39.5t85.5 104.5t43.5 133.5t14 140.5q0 59 -7.5 115t-27 114t-49.5 100.5t-79.5 69.5t-112.5 27q-74 0 -130.5 -39.5t-88 -103.5t-47 -134t-15.5 -141z" />
<glyph unicode="&#x432;" horiz-adv-x="1038" d="M61 0v12q0 13 24.5 19.5t53.5 12t53.5 37.5t24.5 91v549q0 59 -24.5 91t-53.5 37.5t-53.5 12t-24.5 19.5v12h553q156 0 228.5 -59t72.5 -144q0 -82 -75.5 -136.5t-192.5 -59.5v-7q154 0 237 -69t83 -162q0 -36 -11 -70.5t-38 -68.5t-67 -59.5t-103.5 -41.5t-141.5 -16 h-545zM387 152q0 -65 24 -95t89 -30h49q108 0 171.5 57.5t63.5 161.5q0 106 -64 167.5t-161 61.5h-172v-323zM387 504h148q83 0 142.5 50.5t59.5 139.5q0 76 -54.5 124t-145.5 48h-150v-362z" />
<glyph unicode="&#x433;" horiz-adv-x="880" d="M59 881v12h396q261 0 364 31l39 -332l-10 -2q-10 -1 -15 4.5t-10 19.5q-25 75 -57.5 124.5t-73.5 75.5t-83 36t-97 10h-119l2 -706q0 -37 12 -62t29.5 -35t38.5 -15.5t38.5 -7t29.5 -6.5t12 -16v-12h-485v12q0 11 16 15t39 8t45.5 13t38.5 38.5t16 77.5v559 q0 57 -26 88.5t-57 37.5t-57 13t-26 19z" />
<glyph unicode="&#x434;" horiz-adv-x="1085" d="M12 43l2 2q66 -14 144 -14q90 75 142 240t52 393q0 57 -13.5 96.5t-33.5 56.5t-43 27.5t-43 12t-33.5 7t-13.5 15.5v14h893v-12q0 -11 -12 -16.5t-30.5 -7.5t-39.5 -9t-39.5 -18.5t-30.5 -37.5t-12 -65v-696q97 0 166 14l2 -2l-10 -369h-10q-16 0 -19 23q-9 69 -20 116.5 t-29.5 82t-40 54.5t-57.5 31.5t-75 15t-99 3.5h-355q-66 0 -109.5 -9t-76 -27.5t-54 -56t-35.5 -85.5t-28 -125q-3 -23 -18 -23h-10zM199 31h534v829h-346v-78q0 -225 -35 -411q-43 -220 -153 -340z" />
<glyph unicode="&#x435;" horiz-adv-x="976" d="M72 449q0 202 124 335.5t322 133.5q97 0 174.5 -33t125 -89t72.5 -126.5t25 -149.5v-24l-18 -17h-639q-5 -230 67 -348.5t242 -118.5q83 0 162.5 33.5t142.5 91.5l17 -16q-141 -144 -346 -144q-220 0 -345.5 131t-125.5 341zM260 506l469 16v41q0 53 -11 106.5t-34.5 105 t-68 84t-103.5 32.5q-106 0 -173 -106t-79 -279z" />
<glyph unicode="&#x436;" horiz-adv-x="1531" d="M10 0l6 27q14 -4 35 -4q46 0 80.5 49t104.5 217q45 109 105 153.5t177 44.5v9q-50 23 -88 68.5t-55.5 87t-37 93t-30.5 70.5q-14 -43 -48.5 -64.5t-74.5 -21.5q-44 0 -74 27t-30 65q0 36 31 65t86 29q37 0 65 -12t47.5 -37t30.5 -46t25 -56q56 -143 115.5 -204.5 t154.5 -61.5h45v217q0 43 -12 72.5t-29.5 42t-38.5 20t-38.5 9.5t-29.5 7t-12 15v12h481v-12q0 -11 -11.5 -16.5t-28.5 -7.5t-37.5 -9t-37.5 -18.5t-28.5 -37.5t-11.5 -65v-229h45q96 0 156 61t116 205q14 36 24.5 56.5t29.5 45.5t47 37t65 12q56 0 86.5 -29t30.5 -65 q0 -40 -29.5 -66t-73.5 -26q-41 0 -74.5 22t-47.5 64q-11 -19 -30.5 -70.5t-37 -93t-55.5 -87t-88 -68.5v-9q121 0 182 -47.5t113 -175.5q24 -59 39.5 -93t38 -73t45.5 -57t49 -18q20 0 34 4l5 -27q-65 -20 -130 -20q-49 0 -83 9.5t-57.5 32.5t-37 46.5t-32.5 66.5 q-17 40 -39 98t-33 85t-31 62t-39.5 50t-51 26t-73.5 11h-63v-301q0 -39 11.5 -65t28.5 -37.5t37.5 -18.5t37.5 -9t28.5 -7.5t11.5 -16.5v-12h-481v12q0 10 12 15t29.5 7t38.5 9.5t38.5 20t29.5 42t12 72.5v289h-64q-49 0 -81 -10t-55.5 -38.5t-36.5 -55t-35 -84.5 q-8 -20 -21 -55.5t-20 -53t-19 -46t-21.5 -42.5t-24.5 -34t-30 -29.5t-35.5 -20t-45 -14.5t-54.5 -4q-71 0 -127 20z" />
<glyph unicode="&#x437;" horiz-adv-x="862" d="M51 362h8q16 0 22.5 -13t18.5 -62q4 -15 6 -23q33 -126 96 -191.5t181 -68.5q106 0 168.5 66.5t62.5 152.5q0 115 -66 181t-204 69q-18 0 -57 -2v33q151 8 230 56.5t79 152.5q0 71 -54.5 122.5t-150.5 51.5q-125 0 -215 -64q30 -18 46 -52.5t16 -72.5t-22 -63t-62 -25 q-41 0 -63.5 26t-22.5 69q0 30 19.5 65t57.5 69.5t107 57.5t154 23q89 0 158 -16.5t107.5 -40.5t63 -55.5t32 -56.5t7.5 -49q0 -34 -15 -66.5t-48.5 -64.5t-98.5 -53t-153 -24v-7q173 -6 255.5 -75t82.5 -168q0 -111 -104 -189t-302 -78q-133 0 -266 62l-39 -68h-29 q-6 383 -6 391z" />
<glyph unicode="&#x438;" horiz-adv-x="1177" d="M61 0v12q0 10 12 15t29.5 7t38.5 9.5t38.5 20t29.5 42t12 72.5v537q0 43 -12 72.5t-29.5 42t-38.5 20t-38.5 9.5t-29.5 7t-12 15v12h474v-12q0 -11 -10.5 -16.5t-26.5 -7.5t-35 -9t-35 -18.5t-26.5 -37.5t-10.5 -65v-645h6l385 811h334v-12q0 -11 -12 -16.5t-30.5 -7.5 t-39.5 -9t-39.5 -18.5t-30.5 -37.5t-12 -65v-561q0 -39 12 -65t30.5 -37.5t39.5 -18.5t39.5 -9t30.5 -7.5t12 -16.5v-12h-473v12q0 12 14.5 17t34.5 9.5t40.5 15.5t35 42.5t14.5 81.5v633h-6l-385 -811h-330z" />
<glyph unicode="&#x439;" horiz-adv-x="1177" d="M61 0v12q0 10 12 15t29.5 7t38.5 9.5t38.5 20t29.5 42t12 72.5v537q0 43 -12 72.5t-29.5 42t-38.5 20t-38.5 9.5t-29.5 7t-12 15v12h474v-12q0 -11 -10.5 -16.5t-26.5 -7.5t-35 -9t-35 -18.5t-26.5 -37.5t-10.5 -65v-645h6l385 811h334v-12q0 -11 -12 -16.5t-30.5 -7.5 t-39.5 -9t-39.5 -18.5t-30.5 -37.5t-12 -65v-561q0 -39 12 -65t30.5 -37.5t39.5 -18.5t39.5 -9t30.5 -7.5t12 -16.5v-12h-473v12q0 12 14.5 17t34.5 9.5t40.5 15.5t35 42.5t14.5 81.5v633h-6l-385 -811h-330zM356 1280q0 42 29 71t68 29q44 0 67 -32t23 -74q0 -58 -31 -86 q96 -17 210 31.5t189 138.5l15 -15q-48 -59 -107.5 -101t-116 -62.5t-101 -29.5t-81.5 -9q-81 0 -122.5 40.5t-41.5 98.5z" />
<glyph unicode="&#x43a;" horiz-adv-x="1085" d="M61 0v14q0 10 16.5 14.5t40 10.5t47 17.5t40 41.5t16.5 76v545q0 46 -16.5 75.5t-39.5 41t-46 17t-39.5 11t-16.5 15.5v14h480v-16q0 -7 -7.5 -11t-28.5 -8.5t-30 -7.5q-54 -18 -71 -48.5t-17 -115.5v-188h53q92 0 147.5 51t98.5 149l25 66q11 28 18.5 45.5t22 40 t30.5 35t40.5 21.5t54.5 9q56 0 87 -29t31 -65q0 -39 -29.5 -64.5t-74.5 -25.5q-40 0 -74 21t-47 63q-11 -19 -30.5 -70t-37 -92.5t-55.5 -87t-88 -69.5v-9q119 0 178.5 -43.5t104.5 -156.5q52 -128 82 -181q18 -30 32 -46t40.5 -26.5t62.5 -6.5l6 -27q-61 -20 -154 -20 q-78 4 -117.5 42t-72.5 119q-17 40 -37.5 96.5t-31 84t-29.5 61.5t-38.5 49t-51 26t-74.5 11h-72v-303q0 -51 24.5 -82.5t53.5 -39.5t53.5 -15.5t24.5 -16.5v-12h-484z" />
<glyph unicode="&#x43b;" horiz-adv-x="1114" d="M14 72q0 31 24.5 53t59.5 22q100 0 125 -114q98 67 138 214t40 460q0 52 -19 85t-46.5 45t-55 17t-46.5 10t-19 17v12h838v-12q0 -11 -12 -16.5t-30.5 -7.5t-39.5 -9t-39.5 -18.5t-30.5 -37.5t-12 -65v-561q0 -39 10.5 -65t27 -37.5t35 -18.5t35 -9t27 -7.5t10.5 -16.5 v-12h-469v12q0 12 16 16.5t38.5 9t45 15t38.5 42.5t16 83v686h-279q-1 -30 -3 -132t-4.5 -171.5t-13 -164t-28.5 -160.5q-12 -47 -33.5 -90.5t-52.5 -82.5t-75.5 -62.5t-94.5 -23.5q-49 0 -85 24t-36 71z" />
<glyph unicode="&#x43c;" horiz-adv-x="1413" d="M29 0v12q0 10 17.5 15t42.5 10.5t50.5 17t44 41.5t19.5 76l14 571q1 47 -23.5 73t-55 31t-56 11.5t-25.5 18.5v16h340l326 -694h8q172 413 285 694h336v-16q0 -9 -16 -14.5t-39 -11.5t-45.5 -16t-38.5 -35t-15 -63l12 -571q1 -45 17.5 -73.5t39 -39.5t44.5 -16.5 t37.5 -10t15.5 -14.5v-12h-473v12q0 11 24 18t53 14.5t52 39t22 86.5l-14 651h-8q-246 -597 -346 -831h-27l-391 817h-8l-8 -643q-1 -46 16 -74.5t41.5 -39t49 -15.5t42 -9.5t17.5 -15.5v-10h-377z" />
<glyph unicode="&#x43d;" horiz-adv-x="1163" d="M61 0v12q0 10 12 15t29.5 7t38.5 9.5t38.5 20t29.5 42t12 72.5v537q0 43 -12 72.5t-29.5 42t-38.5 20t-38.5 9.5t-29.5 7t-12 15v12h474v-12q0 -11 -10.5 -16.5t-26.5 -7.5t-35 -9t-35 -18.5t-26.5 -37.5t-10.5 -65v-233h377v221q0 50 -14.5 81.5t-35 42.5t-40.5 15.5 t-34.5 9.5t-14.5 17v12h473v-12q0 -11 -12 -16.5t-30.5 -7.5t-39.5 -9t-39.5 -18.5t-30.5 -37.5t-12 -65v-561q0 -39 12 -65t30.5 -37.5t39.5 -18.5t39.5 -9t30.5 -7.5t12 -16.5v-12h-473v12q0 12 14.5 17t34.5 9.5t40.5 15.5t35 42.5t14.5 81.5v283h-377v-295 q0 -39 10.5 -65t26.5 -37.5t35 -18.5t35 -9t26.5 -7.5t10.5 -16.5v-12h-474z" />
<glyph unicode="&#x43e;" d="M72 451q0 200 124.5 333.5t333.5 133.5q217 0 340 -131t123 -332q0 -131 -55 -239t-162 -173.5t-246 -65.5q-110 0 -198 37.5t-144.5 102.5t-86 150t-29.5 184zM254 455q0 -65 8 -125.5t28.5 -121.5t51.5 -105.5t80.5 -72.5t112.5 -28q73 0 129 41t86.5 108t45.5 141 t15 152q0 81 -14.5 155.5t-45 142.5t-87.5 108.5t-134 40.5q-72 0 -127.5 -40t-86.5 -105.5t-46.5 -139.5t-15.5 -151z" />
<glyph unicode="&#x43f;" horiz-adv-x="1177" d="M55 881v12h1051v-12q0 -11 -12 -16.5t-30.5 -7.5t-39.5 -9t-39.5 -18.5t-30.5 -37.5t-12 -65v-561q0 -39 10.5 -65t27 -37.5t35 -18.5t35 -9t27 -7.5t10.5 -16.5v-12h-469v12q0 12 16 16.5t38.5 9t45 15t38.5 42.5t16 83l2 686h-389v-698q0 -39 10.5 -65t27 -37.5 t35 -18.5t35 -9t27 -7.5t10.5 -16.5v-12h-469v12q0 12 16 16.5t38.5 9t45 15t38.5 42.5t16 83v537q0 43 -12 72.5t-29.5 42t-38.5 20t-38.5 9.5t-29.5 7t-12 15z" />
<glyph unicode="&#x440;" horiz-adv-x="1142" d="M20 -430q0 12 16.5 15.5t40 7t47 13t40 40.5t16.5 82v989q0 40 -11.5 67.5t-28.5 38.5t-36.5 17t-36.5 7t-28.5 6t-11.5 15v13l297 34l8 -8l-13 -137l9 -2q119 150 313 150q192 0 311 -119.5t119 -329.5q0 -239 -125.5 -365.5t-337.5 -126.5q-56 0 -127 16.5t-123 53.5 l-10 -2v-330q0 -39 11.5 -64.5t28.5 -35.5t37 -16t37 -7t28.5 -6t11.5 -16v-12h-482v12zM350 84q113 -76 240 -76q80 0 140 38t93.5 103.5t49.5 142.5t16 167q0 192 -75.5 306t-207.5 114q-71 0 -142.5 -32.5t-113.5 -92.5v-670z" />
<glyph unicode="&#x441;" horiz-adv-x="888" d="M72 434q0 215 132.5 349.5t348.5 134.5q69 0 122.5 -13.5t84 -34t50.5 -47.5t27 -51t7 -47q0 -41 -24 -70.5t-62 -29.5q-47 0 -69.5 30t-22.5 76q0 70 41 127q-65 27 -138 27q-139 0 -225 -116t-86 -339q0 -206 79 -309t220 -103q156 0 287 86l14 -20 q-146 -107 -330 -107q-212 0 -334 122.5t-122 334.5z" />
<glyph unicode="&#x442;" horiz-adv-x="892" d="M12 580l39 338q150 -25 393 -25q214 0 396 25q17 -162 39 -338l-11 -2q-15 -3 -24 24q-49 145 -114.5 202.5t-160.5 57.5h-41v-696q0 -35 11.5 -61t28.5 -39t37 -21.5t37 -12t28.5 -8.5t11.5 -12v-12h-483v14q0 8 17 12t40.5 10t47.5 18t41 43t17 77v688h-40 q-97 0 -157 -56.5t-118 -203.5q-11 -24 -20 -24q-3 0 -8 1t-7 1z" />
<glyph unicode="&#x443;" horiz-adv-x="1052" d="M6 879v14h490v-14q0 -12 -23 -18t-50 -9.5t-50 -22t-23 -51.5q0 -20 15 -63l219 -545h6l180 508q18 50 18 90q0 38 -23 59.5t-50.5 26t-50.5 10.5t-23 17v12h401v-12q0 -10 -16.5 -14t-44 -10t-58 -20t-63.5 -53.5t-55 -101.5l-283 -780q-133 -363 -364 -363 q-58 0 -95.5 27.5t-37.5 73.5q0 42 28.5 67t67.5 25q58 0 97 -38.5t50 -96.5q60 23 120.5 103.5t103.5 203.5l24 71h-24l-308 744q-19 46 -45 75.5t-48.5 40.5t-42 16.5t-31 11t-11.5 16.5z" />
<glyph unicode="&#x444;" horiz-adv-x="1552" d="M74 434q0 228 123 356t338 128q67 0 153 -29v405q0 45 -16.5 73t-40.5 37t-48 12.5t-40.5 7.5t-16.5 14v14q253 34 316 41l10 -6v-629q96 60 207 60q191 0 304.5 -126t113.5 -333q0 -228 -123.5 -355t-337.5 -127q-74 0 -162 29v-270q0 -43 17 -71t41.5 -39t49 -17 t41.5 -11.5t17 -15.5v-12h-492v14q0 8 12 13t29.5 7.5t38.5 11t38.5 21t29.5 41t12 68.5v283q-102 -54 -196 -54q-192 0 -305 123.5t-113 335.5zM254 436q0 -212 73.5 -316t198.5 -104q88 0 162 43v799q-76 25 -133 25q-79 0 -138 -34.5t-94 -96.5t-52 -141t-17 -175z M852 825q0 -131 1 -393.5t1 -394.5q74 -27 141 -27q79 0 138 34t94 96t52 141t17 176q0 211 -76 313t-202 102q-92 0 -166 -47z" />
<glyph unicode="&#x445;" horiz-adv-x="1034" d="M20 0v8q0 14 19.5 23t49.5 17.5t78 41.5t93 88l189 230l-238 340q-30 43 -63.5 68.5t-55 32t-35.5 14.5t-14 22v8h465v-10q0 -8 -7 -13t-15.5 -7.5t-24.5 -6t-27 -6.5q-47 -13 -47 -53q0 -32 39 -86l131 -189l129 162q41 54 41 94q0 60 -76 74q-11 2 -26 4.5t-21.5 4 t-13.5 4t-9.5 7.5t-2.5 13v8h421v-8q0 -13 -12.5 -19t-37 -12.5t-53.5 -18t-69.5 -42.5t-78.5 -78l-175 -215l240 -338q32 -45 66 -73.5t59.5 -38t46.5 -14.5t32 -10t11 -18v-8h-506v10q0 8 7 13t16.5 7.5t25.5 6t27 6.5q47 13 47 53q0 32 -39 86l-141 201l-143 -174 q-41 -47 -41 -92q0 -62 75 -76q11 -2 27 -4.5t23.5 -4t16 -4.5t12 -8t3.5 -12v-8h-418z" />
<glyph unicode="&#x446;" horiz-adv-x="1142" d="M61 0v12q0 10 12 15t29.5 7t38.5 9.5t38.5 20t29.5 42t12 72.5v537q0 43 -11.5 72.5t-28.5 42t-37.5 20t-37.5 9.5t-28.5 7t-11.5 15v12h473v-12q0 -11 -11 -16.5t-27.5 -7.5t-35.5 -9t-35.5 -18.5t-27.5 -37.5t-11 -65v-694h391v682q0 42 -10.5 71.5t-27 42t-35 20 t-35 9.5t-27 7.5t-10.5 15.5v12h473v-12q0 -11 -11.5 -16.5t-29.5 -7.5t-38 -9t-38 -18.5t-29.5 -37.5t-11.5 -65l-2 -694h27q59 0 102.5 -15.5t66 -41.5t32.5 -53.5t10 -57.5q0 -78 -50.5 -134.5t-152.5 -56.5q-93 0 -237 17.5t-220 17.5q-65 0 -95 -25t-38 -81h-26 q0 49 8 91.5t26.5 83t55 64t88.5 23.5q100 0 259.5 -38t213.5 -38q53 0 79.5 28t26.5 66q0 117 -159 117h-906z" />
<glyph unicode="&#x447;" d="M-20 881v12h471v-12q0 -10 -10 -15.5t-25.5 -7.5t-33.5 -9.5t-33.5 -20t-25.5 -42t-10 -71.5v-129q0 -99 37.5 -145t122.5 -46q120 0 199 62v270q0 39 -10.5 65t-26 37.5t-33.5 18.5t-33.5 9t-26 7.5t-10.5 16.5v12h472v-12q0 -10 -12 -15t-30 -7t-39 -9.5t-39 -20 t-30 -42t-12 -72.5v-537q0 -43 12 -72.5t30 -42t39 -20t39 -9.5t30 -7t12 -15v-12h-472v12q0 11 10.5 16.5t26 7.5t33.5 9t33.5 18.5t26 37.5t10.5 65v256l-6 2q-123 -78 -254 -78q-54 0 -99.5 14t-85 44t-62 84.5t-22.5 129.5v109q0 39 -12 65t-30 37.5t-39.5 18.5t-39.5 9 t-30 7.5t-12 16.5z" />
<glyph unicode="&#x448;" horiz-adv-x="1579" d="M61 0v12q0 10 12 15t29.5 7t38.5 9.5t38.5 20t29.5 42t12 72.5v537q0 43 -11.5 72.5t-28.5 42t-37.5 20t-37.5 9.5t-28.5 7t-11.5 15v12h458v-12q0 -11 -10 -16.5t-24.5 -7.5t-32 -9t-32 -18.5t-24.5 -37.5t-10 -65v-694h309v682q0 50 -13.5 81.5t-32 42.5t-37.5 15.5 t-32.5 9.5t-13.5 17v12h441v-12q0 -11 -10.5 -16.5t-26.5 -7.5t-34 -9t-34 -18.5t-26.5 -37.5t-10.5 -65v-694h318v694q0 39 -10 65t-24.5 37.5t-32 18.5t-32 9t-24.5 7.5t-10 16.5v12h458v-12q0 -12 -16 -16.5t-38.5 -9t-45.5 -15t-39 -42.5t-16 -83v-537q0 -43 12 -72.5 t29.5 -42t38.5 -20t38.5 -9.5t29.5 -7t12 -15v-12h-1457z" />
<glyph unicode="&#x449;" horiz-adv-x="1550" d="M61 0v12q0 10 12 15t29.5 7t38.5 9.5t38.5 20t29.5 42t12 72.5v537q0 43 -11.5 72.5t-28.5 42t-37.5 20t-37.5 9.5t-28.5 7t-11.5 15v12h458v-12q0 -11 -10 -16.5t-24.5 -7.5t-32 -9t-32 -18.5t-24.5 -37.5t-10 -65v-694h309v682q0 50 -13.5 81.5t-32 42.5t-37.5 15.5 t-32.5 9.5t-13.5 17v12h441v-12q0 -11 -10.5 -16.5t-26.5 -7.5t-34 -9t-34 -18.5t-26.5 -37.5t-10.5 -65v-694h320v682q0 50 -13.5 81.5t-33 42.5t-38.5 15.5t-32.5 9.5t-13.5 17v12h459v-12q0 -11 -11.5 -16.5t-29.5 -7.5t-38 -9t-38 -18.5t-29.5 -37.5t-11.5 -65v-694h26 q59 0 102.5 -15.5t66 -41.5t32.5 -53.5t10 -57.5q0 -78 -50 -134.5t-152 -56.5q-93 0 -237 17.5t-220 17.5q-65 0 -95 -25t-38 -81h-27q0 49 8 91.5t26.5 83t55 64t88.5 23.5q100 0 260 -38t214 -38q53 0 79.5 28t26.5 66q0 117 -160 117h-1315z" />
<glyph unicode="&#x44a;" horiz-adv-x="1212" d="M-2 592q6 63 20 182t17 150q92 -31 332 -31h378v-12q0 -11 -17 -16.5t-41.5 -10.5t-48.5 -15.5t-41 -40t-17 -75.5v-160q91 12 159 12q75 0 136.5 -11.5t103.5 -30t74 -44.5t50 -52t29.5 -56t15 -53t3.5 -45q0 -39 -12 -77.5t-40 -76t-68.5 -66t-104 -46t-140.5 -17.5 h-530v12q0 12 16.5 15.5t40 7t47 13t40 40.5t16.5 82l-2 690h-72q-110 0 -182.5 -53t-128.5 -193q-9 -22 -25 -22h-8zM580 168q0 -73 25.5 -106t90.5 -33h33q104 0 173 70t69 175q0 51 -15 96.5t-47 85.5t-90 63.5t-137 23.5q-50 0 -102 -8v-367z" />
<glyph unicode="&#x44b;" horiz-adv-x="1492" d="M61 0v12q0 13 24.5 19.5t53.5 12t53.5 37.5t24.5 91v549q0 59 -24.5 91t-53.5 37.5t-53.5 12t-24.5 19.5v12h500v-12q0 -12 -18 -18t-43.5 -10.5t-51 -13.5t-43.5 -36.5t-18 -71.5v-160q96 13 162 13q101 0 178.5 -22t120 -54t69.5 -74t35.5 -75.5t8.5 -65.5 q0 -42 -11 -81.5t-38.5 -79t-70 -68t-111 -46.5t-155.5 -18h-514zM387 160q0 -67 23.5 -100t87.5 -33h26q117 0 184.5 77.5t67.5 186.5q0 106 -68.5 185t-193.5 79q-68 0 -127 -10v-385zM932 0v12q0 13 25.5 19.5t55.5 12t55.5 37.5t25.5 91v549q0 59 -25.5 91t-55.5 37.5 t-55.5 12t-25.5 19.5v12h500v-12q0 -12 -17.5 -18t-42 -10.5t-49 -13.5t-42 -36.5t-17.5 -71.5v-569q0 -44 17.5 -71.5t42 -36.5t49 -13.5t42 -10.5t17.5 -18v-12h-500z" />
<glyph unicode="&#x44c;" horiz-adv-x="1007" d="M47 0v12q0 13 24.5 19.5t53.5 12t53.5 37.5t24.5 91v549q0 59 -24.5 91t-53.5 37.5t-53.5 12t-24.5 19.5v12h500v-12q0 -12 -18 -18t-43.5 -10.5t-51 -13.5t-43.5 -36.5t-18 -71.5v-160q96 13 162 13q101 0 178 -22t120 -54t70 -74t35 -75.5t8 -65.5q0 -54 -18.5 -102.5 t-60 -93t-120 -71t-186.5 -26.5h-514zM373 152q0 -66 23 -95.5t87 -29.5h27q117 0 184.5 77.5t67.5 186.5q0 106 -68.5 185t-193.5 79q-68 0 -127 -10v-393z" />
<glyph unicode="&#x44d;" horiz-adv-x="925" d="M31 362h8q16 0 22.5 -13t18.5 -62q4 -15 6 -23q33 -125 99 -191.5t182 -66.5q146 0 222.5 125t76.5 340q-30 -35 -70.5 -55.5t-75.5 -20.5q-44 0 -103.5 22.5t-86.5 22.5q-41 0 -72 -34l-18 14q74 104 174 104q43 0 106 -16t92 -16q27 0 52 18q-7 184 -87 278.5 t-223 94.5q-116 0 -190 -66q61 -41 61 -121q0 -42 -24 -70t-68 -28q-39 0 -60.5 26t-21.5 72q0 31 19.5 67.5t58 72.5t109.5 60t161 24q210 0 332.5 -127t122.5 -342q0 -200 -137 -337t-342 -137q-138 0 -271 62l-38 -68h-29q-6 383 -6 391z" />
<glyph unicode="&#x44e;" horiz-adv-x="1562" d="M61 0v12q0 13 24.5 19.5t53.5 12t53.5 37.5t24.5 91v549q0 59 -24.5 91t-53.5 37.5t-53.5 12t-24.5 19.5v12h500v-12q0 -12 -18 -18t-43.5 -10.5t-51 -13.5t-43.5 -36.5t-18 -71.5v-254h203q8 191 127.5 316t320.5 125q216 0 334.5 -130.5t118.5 -332.5 q0 -132 -52.5 -239.5t-157 -173t-243.5 -65.5q-109 0 -195.5 36.5t-140.5 100.5t-82.5 148t-29.5 182h-203v-282q0 -44 18 -71.5t43.5 -36.5t51 -13.5t43.5 -10.5t18 -18v-12h-500zM772 455q0 -66 7 -125.5t26 -121t48 -106t77.5 -72.5t111.5 -28q59 0 106 27.5t76.5 71.5 t49 103.5t27.5 118.5t8 121q0 82 -13 155.5t-41.5 142t-84 109t-132.5 40.5q-72 0 -126 -40t-83 -106t-43 -139t-14 -151z" />
<glyph unicode="&#x44f;" horiz-adv-x="1019" d="M-10 0q2 8 2 27q24 -4 35 -4q43 0 72 31t53 91q9 19 24 53t22.5 49.5t21.5 42.5t23.5 39.5t25.5 31.5t31.5 28t37 20t46.5 16.5t56 8.5v8q-69 2 -123 17.5t-86.5 38t-53.5 52t-28.5 57t-7.5 55.5q0 103 89.5 167t285.5 64h453v-14q0 -12 -25.5 -19t-55.5 -13t-55.5 -36.5 t-25.5 -83.5v-561q0 -43 16 -71.5t38.5 -39.5t45 -16.5t38.5 -11t16 -15.5v-12h-484v14q0 7 12 11.5t30 7t39 11t39 22t30 41.5t12 67v254h-57q-82 0 -123.5 -33t-73.5 -114q-9 -23 -23 -64t-23 -63.5t-24 -55t-30.5 -50.5t-37.5 -36.5t-51.5 -26.5t-66.5 -8q-72 0 -139 23z M317 659q0 -91 64.5 -146.5t179.5 -55.5h78v405h-84q-107 0 -172.5 -57.5t-65.5 -145.5z" />
<glyph unicode="&#x451;" horiz-adv-x="976" d="M72 449q0 202 124 335.5t322 133.5q97 0 174.5 -33t125 -89t72.5 -126.5t25 -149.5v-24l-18 -17h-639q-5 -230 67 -348.5t242 -118.5q83 0 162.5 33.5t142.5 91.5l17 -16q-141 -144 -346 -144q-220 0 -345.5 131t-125.5 341zM233 1214q0 38 28.5 66.5t66.5 28.5t66 -28.5 t28 -66.5t-28 -66t-66 -28t-66.5 28t-28.5 66zM260 506l469 16v41q0 53 -11 106.5t-34.5 105t-68 84t-103.5 32.5q-106 0 -173 -106t-79 -279zM590 1214q0 39 27.5 67t66.5 28q38 0 66 -28.5t28 -66.5t-28 -66t-66 -28q-39 0 -66.5 27.5t-27.5 66.5z" />
<glyph unicode="&#x452;" horiz-adv-x="1050" d="M10 0v12q0 10 11.5 14.5t28.5 5.5t37 7.5t37 18t28.5 40.5t11.5 72v977h-137v31h137v125q0 40 -11.5 67.5t-28.5 38.5t-37 17t-37 7t-28.5 6t-11.5 15v12l316 35l8 -8v-315h325v-31h-325v-170q0 -129 -23 -217l6 -2q116 157 289 157q115 0 198.5 -75t124 -200t40.5 -284 q0 -134 -39.5 -267t-105.5 -236.5t-160 -167.5t-195 -64q-36 0 -71.5 23.5t-35.5 70.5q0 41 28 63.5t67 22.5q41 0 79 -33.5t46 -95.5q38 16 66 39.5t55.5 72.5t44.5 122t27.5 189.5t10.5 271.5q0 75 -5 140.5t-20 134.5t-38.5 117.5t-64 79.5t-93.5 31q-66 0 -130 -37.5 t-101 -97.5v-577q0 -39 12 -64.5t29.5 -36t38.5 -16.5t38.5 -7t29.5 -6t12 -16v-12h-484z" />
<glyph unicode="&#x453;" horiz-adv-x="847" d="M59 881v12h396q261 0 364 31l39 -332l-10 -2q-10 -1 -15 4.5t-10 19.5q-25 75 -57.5 124.5t-73.5 75.5t-83 36t-97 10h-119l2 -706q0 -37 12 -62t29.5 -35t38.5 -15.5t38.5 -7t29.5 -6.5t12 -16v-12h-485v12q0 11 16 15t39 8t45.5 13t38.5 38.5t16 77.5v559 q0 57 -26 88.5t-57 37.5t-57 13t-26 19zM317 1061q62 42 110 91t72 87t43.5 70t38 49.5t42.5 17.5q31 0 48 -20.5t17 -48.5q0 -51 -99.5 -133t-260.5 -130z" />
<glyph unicode="&#x454;" horiz-adv-x="888" d="M72 412q0 220 127 363t331 143q74 0 131.5 -13.5t91 -34t55 -47.5t29 -51t7.5 -47q0 -41 -24 -70.5t-62 -29.5q-47 0 -69.5 30t-22.5 76q0 70 41 127q-65 27 -138 27q-129 0 -215.5 -113.5t-95.5 -329.5q64 64 141 64q43 0 103.5 -17.5t89.5 -17.5q35 0 65 37l19 -10 q-27 -60 -75 -89.5t-95 -29.5q-44 0 -104 22.5t-87 22.5q-35 0 -57 -14q0 -195 84.5 -294.5t214.5 -99.5q153 0 289 103l16 -19q-132 -123 -334 -123q-220 0 -338 113t-118 322z" />
<glyph unicode="&#x455;" horiz-adv-x="817" d="M66 158q0 42 26.5 66t61.5 24q46 0 76 -30t30 -81q0 -67 -29 -106q25 -12 69 -20.5t81 -8.5q86 0 152.5 52.5t66.5 150.5q0 45 -28 81.5t-72.5 61.5t-98.5 48t-108 47.5t-98.5 52.5t-72.5 69.5t-28 93.5q0 114 88 186.5t236 72.5q119 0 201.5 -46t82.5 -127 q0 -39 -23 -60t-56 -21q-39 0 -68 27t-29 75q0 53 21 104q-49 21 -115 21q-22 0 -45 -4.5t-49.5 -17t-46.5 -31t-33.5 -50t-13.5 -71.5q0 -35 22 -64.5t58 -50.5t82 -43t94 -41t94 -46t82 -56.5t58 -74t22 -97.5q0 -66 -32 -118t-85 -84t-117.5 -48.5t-134.5 -16.5 q-131 0 -226 49t-95 132z" />
<glyph unicode="&#x456;" horiz-adv-x="624" d="M72 870v13l319 35l8 -9v-755q0 -44 18 -70.5t43.5 -34.5t51 -11.5t43.5 -8.5t18 -17v-12h-499v12q0 11 16 15t39 8t45.5 13t38.5 38.5t16 77.5v555q0 40 -11.5 67.5t-29 38.5t-38 17t-38 7t-29 6t-11.5 15zM188 1270q0 45 33 77.5t80 32.5t80 -32.5t33 -77.5 q0 -47 -33 -81t-80 -34t-80 34t-33 81z" />
<glyph unicode="&#x457;" horiz-adv-x="624" d="M-12 1200q0 38 28 66t66 28t66 -28t28 -66t-28 -66t-66 -28t-66 28t-28 66zM72 870v13q137 4 319 35l8 -9v-755q0 -44 18 -70.5t43.5 -34.5t51 -11.5t43.5 -8.5t18 -17v-12h-499v12q0 11 16 15t39 8t45.5 13t38.5 38.5t16 77.5v555q0 40 -11.5 67.5t-29 38.5t-38 17 t-38 7t-29 6t-11.5 15zM344 1200q0 39 27.5 66.5t66.5 27.5q38 0 66 -28t28 -66t-28 -66t-66 -28q-39 0 -66.5 27.5t-27.5 66.5z" />
<glyph unicode="&#x458;" horiz-adv-x="532" d="M-72 -369q0 33 29 57.5t66 24.5q57 0 86.5 -40.5t31.5 -96.5q64 24 64 113v1030q0 48 -17.5 77t-43 38t-51 12.5t-43 7.5t-17.5 16v13l334 35l8 -9v-903q0 -214 -60 -313q-39 -65 -114 -113.5t-142 -48.5q-52 0 -91.5 25.5t-39.5 74.5zM164 1268q0 45 32.5 77.5 t79.5 32.5t80 -32.5t33 -77.5q0 -47 -33 -81t-80 -34t-79.5 33.5t-32.5 81.5z" />
<glyph unicode="&#x459;" horiz-adv-x="1470" d="M2 72q0 31 24.5 53t59.5 22q100 0 125 -114q98 67 138 214t40 460q0 52 -19 85t-46.5 45t-55 17t-46.5 10t-19 17v12h815v-12q0 -12 -18 -17t-43.5 -8.5t-51 -11.5t-43.5 -34.5t-18 -70.5v-168q96 13 153 13q101 0 178.5 -22t120 -54t69.5 -74t35.5 -75.5t8.5 -65.5 q0 -54 -18.5 -102.5t-60 -93t-120 -71t-186.5 -26.5h-506v12q0 11 16 15t39 8t46 13t39 38.5t16 77.5v700h-246q-1 -30 -3 -132t-4.5 -171.5t-13 -164t-28.5 -160.5q-12 -47 -33.5 -90.5t-52.5 -82.5t-75.5 -62.5t-94.5 -23.5q-49 0 -85 24t-36 71zM844 152q0 -66 23 -95.5 t87 -29.5h19q117 0 184.5 77.5t67.5 186.5q0 106 -68.5 185t-193.5 79q-60 0 -119 -10v-393z" />
<glyph unicode="&#x45a;" horiz-adv-x="1540" d="M61 0v12q0 10 12 15t29.5 7t38.5 9.5t38.5 20t29.5 42t12 72.5v537q0 43 -12 72.5t-29.5 42t-38.5 20t-38.5 9.5t-29.5 7t-12 15v12h474v-12q0 -11 -10.5 -16.5t-26.5 -7.5t-35 -9t-35 -18.5t-26.5 -37.5t-10.5 -65v-217h363v205q0 50 -14.5 81.5t-35 42.5t-41 15.5 t-35 9.5t-14.5 17v12h473v-12q0 -11 -12 -16.5t-30 -7.5t-39.5 -9t-39.5 -18.5t-30 -37.5t-12 -65v-190q89 12 143 12q85 0 153 -13.5t111.5 -37t74 -50.5t45.5 -59t21.5 -58t6.5 -52q0 -42 -11.5 -80.5t-38.5 -75t-68 -63.5t-105 -43.5t-144 -16.5h-514v12q0 13 24.5 19.5 t53.5 12t53.5 37.5t24.5 91v305h-363v-311q0 -39 10.5 -65t26.5 -37.5t35 -18.5t35 -9t26.5 -7.5t10.5 -16.5v-12h-474zM924 152q0 -66 23 -95.5t87 -29.5h27q112 0 172.5 70.5t60.5 178.5q0 105 -61.5 174.5t-181.5 69.5q-68 0 -127 -10v-358z" />
<glyph unicode="&#x45b;" horiz-adv-x="1136" d="M31 0v12q0 12 16.5 15.5t40.5 7t48 13t40.5 40.5t16.5 82v977h-154v31h154v125q0 40 -11.5 67.5t-28.5 38.5t-37 17t-37 7t-28.5 6t-11.5 15v12l315 35l8 -8v-315h326v-31h-326v-156q0 -154 -22 -231l8 -2q52 77 132.5 118.5t166.5 41.5q55 0 102 -14t87 -44.5t63 -85 t23 -129.5v-487q0 -39 12 -64.5t30 -36t39.5 -16.5t39.5 -7t30 -6t12 -16v-12h-481v12q0 10 11 15t27.5 6t35.5 7.5t35.5 18.5t27.5 40.5t11 70.5v514q0 91 -43 138.5t-115 47.5q-66 0 -133 -39.5t-99 -99.5v-573q0 -39 11.5 -64.5t28 -36t36.5 -16.5t36.5 -7t28 -6 t11.5 -16v-12h-483z" />
<glyph unicode="&#x45c;" horiz-adv-x="1085" d="M61 0v14q0 10 16.5 14.5t40 10.5t47 17.5t40 41.5t16.5 76v545q0 46 -16.5 75.5t-39.5 41t-46 17t-39.5 11t-16.5 15.5v14h480v-16q0 -7 -7.5 -11t-28.5 -8.5t-30 -7.5q-54 -18 -71 -48.5t-17 -115.5v-188h53q92 0 147.5 51t98.5 149l25 66q11 28 18.5 45.5t22 40 t30.5 35t40.5 21.5t54.5 9q56 0 87 -29t31 -65q0 -39 -29.5 -64.5t-74.5 -25.5q-40 0 -74 21t-47 63q-11 -19 -30.5 -70t-37 -92.5t-55.5 -87t-88 -69.5v-9q119 0 178.5 -43.5t104.5 -156.5q52 -128 82 -181q18 -30 32 -46t40.5 -26.5t62.5 -6.5l6 -27q-61 -20 -154 -20 q-78 4 -117.5 42t-72.5 119q-17 40 -37.5 96.5t-31 84t-29.5 61.5t-38.5 49t-51 26t-74.5 11h-72v-303q0 -51 24.5 -82.5t53.5 -39.5t53.5 -15.5t24.5 -16.5v-12h-484zM389 1061q62 42 109.5 91t72 87t43.5 70t37.5 49.5t42.5 17.5q32 0 49 -21t17 -48q0 -51 -100 -133 t-261 -130z" />
<glyph unicode="&#x45e;" horiz-adv-x="1052" d="M6 879v14h490v-14q0 -12 -23 -18t-50 -9.5t-50 -22t-23 -51.5q0 -20 15 -63l219 -545h6l180 508q18 50 18 90q0 38 -23 59.5t-50.5 26t-50.5 10.5t-23 17v12h401v-12q0 -10 -16.5 -14t-44 -10t-58 -20t-63.5 -53.5t-55 -101.5l-283 -780q-133 -363 -364 -363 q-58 0 -95.5 27.5t-37.5 73.5q0 42 28.5 67t67.5 25q58 0 97 -38.5t50 -96.5q60 23 120.5 103.5t103.5 203.5l24 71h-24l-308 744q-19 46 -45 75.5t-48.5 40.5t-42 16.5t-31 11t-11.5 16.5zM317 1280q0 42 29 71t68 29q44 0 67 -32t23 -74q0 -58 -31 -86q96 -17 210 31.5 t189 138.5l15 -15q-48 -59 -107.5 -101t-116 -62.5t-101 -29.5t-81.5 -9q-81 0 -122.5 40.5t-41.5 98.5z" />
<glyph unicode="&#x45f;" horiz-adv-x="1177" d="M61 0v12q0 10 12 15t29.5 7t38.5 9.5t38.5 20t29.5 42t12 72.5v537q0 43 -12 72.5t-29.5 42t-38.5 20t-38.5 9.5t-29.5 7t-12 15v12h474v-12q0 -11 -10.5 -16.5t-26.5 -7.5t-35 -9t-35 -18.5t-26.5 -37.5t-10.5 -65v-694h391v682q0 50 -14.5 81.5t-35 42.5t-40.5 15.5 t-34.5 9.5t-14.5 17v12h473v-12q0 -11 -12 -16.5t-30.5 -7.5t-39.5 -9t-39.5 -18.5t-30.5 -37.5t-12 -65v-561q0 -39 12 -65t30.5 -37.5t39.5 -18.5t39.5 -9t30.5 -7.5t12 -16.5v-12h-465q-22 -7 -35.5 -24.5t-13.5 -36.5q0 -22 27.5 -87t27.5 -116q0 -146 -188 -146 q-65 0 -123 21l6 31q150 -21 164 106q3 25 5 66t5 64.5t10 51t23.5 44.5t42.5 26h-541z" />
<glyph unicode="&#x490;" horiz-adv-x="1226" d="M76 1366v14h704q166 0 253.5 74t142.5 254q8 27 28 27h10l-53 -430q-142 43 -399 43h-266v-1069q0 -71 17 -120.5t42.5 -71.5t55 -34.5t55 -15t42.5 -8.5t17 -19v-10h-643v10q0 14 23 20t55 14.5t64.5 27.5t55.5 72t23 135v890q0 61 -23.5 98.5t-56.5 51t-66.5 19 t-57 10.5t-23.5 18z" />
<glyph unicode="&#x491;" horiz-adv-x="829" d="M53 881v12h424q127 0 198 49.5t126 190.5q6 14 10.5 19t13.5 5h11q-9 -84 -39 -321q-169 24 -371 24h-39v-694q0 -44 14.5 -72t35.5 -38.5t41.5 -15.5t35 -11t14.5 -17v-12h-460v12q0 11 15.5 16.5t37 10.5t43.5 16t37.5 41.5t15.5 79.5v547q0 46 -17 75.5t-41 40 t-48 15.5t-41 10.5t-17 16.5z" />
<glyph unicode="&#x4d9;" horiz-adv-x="976" d="M72 387v25l18 16h639q5 218 -65 336.5t-238 118.5q-83 0 -162.5 -33.5t-142.5 -91.5l-17 16q141 144 347 144q220 0 342 -124.5t122 -334.5q0 -204 -124.5 -343t-321.5 -139q-97 0 -174.5 34.5t-125 93t-72.5 131t-25 151.5zM258 344q0 -53 11 -108t34.5 -109.5t68 -88.5 t103.5 -34q71 0 126 52.5t86.5 141.5t39.5 203l-469 -16v-41z" />
<glyph unicode="&#x2000;" horiz-adv-x="887" />
<glyph unicode="&#x2001;" horiz-adv-x="1774" />
<glyph unicode="&#x2002;" horiz-adv-x="887" />
<glyph unicode="&#x2003;" horiz-adv-x="1774" />
<glyph unicode="&#x2004;" horiz-adv-x="591" />
<glyph unicode="&#x2005;" horiz-adv-x="443" />
<glyph unicode="&#x2006;" horiz-adv-x="295" />
<glyph unicode="&#x2007;" horiz-adv-x="295" />
<glyph unicode="&#x2008;" horiz-adv-x="221" />
<glyph unicode="&#x2009;" horiz-adv-x="354" />
<glyph unicode="&#x200a;" horiz-adv-x="98" />
<glyph unicode="&#x2010;" horiz-adv-x="608" d="M61 492v34h486v-34h-486z" />
<glyph unicode="&#x2011;" horiz-adv-x="608" d="M61 492v34h486v-34h-486z" />
<glyph unicode="&#x2012;" horiz-adv-x="608" d="M61 492v34h486v-34h-486z" />
<glyph unicode="&#x2013;" horiz-adv-x="1024" d="M61 496v43h902v-43h-902z" />
<glyph unicode="&#x2014;" horiz-adv-x="1632" d="M61 496v43h1508v-43h-1508z" />
<glyph unicode="&#x2018;" horiz-adv-x="440" d="M119 1098q0 70 51 163t125 152l16 -16q-59 -53 -105.5 -130.5t-47.5 -138.5q41 23 73 23q42 0 71.5 -25.5t29.5 -68.5q0 -39 -28.5 -66.5t-70.5 -27.5q-55 0 -84.5 36t-29.5 99z" />
<glyph unicode="&#x2019;" horiz-adv-x="460" d="M109 1337q0 39 28 67t70 28q55 0 85 -36.5t30 -99.5q0 -70 -51.5 -163t-125.5 -152l-16 16q60 53 106.5 130.5t47.5 138.5q-41 -23 -74 -23q-42 0 -71 25.5t-29 68.5z" />
<glyph unicode="&#x201a;" horiz-adv-x="460" d="M135 98q0 39 28 67t70 28q55 0 85 -36.5t30 -99.5q0 -70 -51 -163t-125 -152l-16 16q59 53 105.5 130.5t47.5 138.5q-41 -23 -73 -23q-42 0 -71.5 25.5t-29.5 68.5z" />
<glyph unicode="&#x201c;" horiz-adv-x="688" d="M106 1110q0 70 51.5 163t125.5 152l16 -16q-60 -53 -106.5 -130t-47.5 -138q39 22 74 22q42 0 71 -25.5t29 -68.5q0 -39 -28 -66.5t-70 -27.5q-55 0 -85 36.5t-30 98.5zM373 1110q0 70 51 163t125 152l16 -16q-60 -53 -106 -130t-47 -138q39 22 73 22q42 0 71.5 -25.5 t29.5 -68.5q0 -39 -28.5 -66.5t-70.5 -27.5q-55 0 -84.5 36t-29.5 99z" />
<glyph unicode="&#x201d;" horiz-adv-x="708" d="M115 1321q0 39 28 66.5t70 27.5q55 0 85 -36.5t30 -98.5q0 -70 -51 -163t-125 -152l-17 16q60 53 106.5 130t47.5 138q-39 -22 -74 -22q-42 0 -71 25.5t-29 68.5zM381 1321q0 39 28 66.5t70 27.5q55 0 85 -36.5t30 -98.5q0 -70 -51 -163t-125 -152l-17 16 q60 53 106.5 130t47.5 138q-39 -22 -74 -22q-42 0 -71 25.5t-29 68.5z" />
<glyph unicode="&#x201e;" horiz-adv-x="708" d="M109 100q0 39 28 67t70 28q55 0 85 -36.5t30 -99.5q0 -70 -51.5 -163t-125.5 -152l-16 16q60 53 106.5 130.5t47.5 138.5q-41 -23 -74 -23q-42 0 -71 25.5t-29 68.5zM375 100q0 39 28 67t70 28q55 0 85 -36.5t30 -99.5q0 -70 -51 -163t-125 -152l-17 16 q60 53 106.5 130.5t47.5 138.5q-41 -23 -74 -23q-42 0 -71 25.5t-29 68.5z" />
<glyph unicode="&#x2026;" horiz-adv-x="1253" d="M102 92q0 46 31.5 77.5t75.5 31.5q46 0 77 -31.5t31 -77.5q0 -44 -31 -75t-77 -31q-44 0 -75.5 31t-31.5 75zM510 92q0 46 31 77.5t75 31.5q46 0 77.5 -31.5t31.5 -77.5q0 -44 -31.5 -75t-77.5 -31q-44 0 -75 31t-31 75zM936 92q0 46 31 77.5t75 31.5q46 0 77.5 -31.5 t31.5 -77.5q0 -44 -31.5 -75t-77.5 -31q-44 0 -75 31t-31 75z" />
<glyph unicode="&#x202f;" horiz-adv-x="354" />
<glyph unicode="&#x2039;" horiz-adv-x="636" d="M102 420q0 26 52 78l356 338l16 -15l-260 -397l252 -397l-18 -15l-344 332q-30 28 -42 44t-12 32z" />
<glyph unicode="&#x203a;" horiz-adv-x="636" d="M102 821l17 15l356 -338q51 -51 51 -78q0 -16 -12 -32.5t-41 -43.5l-344 -332l-18 15l251 397z" />
<glyph unicode="&#x205f;" horiz-adv-x="443" />
<glyph unicode="&#x20ac;" d="M31 582v30h821v-30h-549q6 -266 115 -418t309 -152q39 0 61.5 1t59 9t70.5 23q-31 53 -31 117q0 62 28 104.5t82 42.5q34 0 61 -26t27 -72q0 -100 -108 -165.5t-260 -65.5q-267 0 -426 164t-170 438h-90zM31 754v30h96q19 164 93 295t202.5 210t290.5 79q134 0 234 -60 t100 -157q0 -46 -27.5 -72t-61.5 -26q-54 0 -81 37.5t-27 95.5q0 61 29 121q-68 30 -174 30q-92 0 -166 -44.5t-121.5 -122.5t-75 -175.5t-33.5 -210.5h543v-30h-821z" />
<glyph unicode="&#x2122;" horiz-adv-x="1648" d="M66 1198l20 199q129 -17 291 -17q189 0 297 17l20 -199l-6 -2q-13 -5 -18 14q-16 46 -27.5 70.5t-23.5 42.5t-32.5 24.5t-41.5 8.5t-64 2h-53l-2 -561q0 -29 17.5 -43.5t38 -15.5t38 -5t17.5 -14v-8h-306v8q0 10 16.5 14.5t36 5.5t36 16t16.5 44v559h-72q-47 -1 -68 -4 t-42 -19t-33 -42.5t-31 -82.5q-4 -16 -18 -14zM729 711v10q0 8 17.5 12t38 6.5t38 20t17.5 49.5v455q0 41 -17.5 62t-38 23t-38 6.5t-17.5 16.5v8h199l248 -557l223 557h180v-12q0 -9 -15.5 -12.5t-33.5 -6t-33.5 -23.5t-15.5 -60v-461q0 -31 16.5 -47t36.5 -17.5t36.5 -5.5 t16.5 -14v-10h-297v10q0 8 16 12.5t34.5 7t34.5 17.5t16 43v514l-244 -613h-17l-266 603v-498q0 -31 18 -48t39.5 -19.5t39.5 -6.5t18 -12v-10h-250z" />
<glyph unicode="&#x25fc;" horiz-adv-x="890" d="M0 0v891h891v-891h-891z" />
</font>
</defs>
</svg>
